<svg t="1732324783698" class="icon" viewBox="0 0 1024 1024" version="1.1" xmlns="http://www.w3.org/2000/svg" p-id="1200" xmlns:xlink="http://www.w3.org/1999/xlink" width="48" height="48"><path d="M876.64010481 238.67682301H550.66063729V90.81243664c0-9.66515958-3.38908138-41.29659027-47.19610273-41.29659027s-47.19610273 31.63143069-47.19610272 41.29659027v147.86438637H147.35989519c-48.20027598 0-74.81084453 23.72357276-74.81084452 66.77746468v291.08447634c0 44.68567165 27.36369797 70.41758989 74.81084452 70.41759092h308.90853665v267.98851006c0 9.66515958 3.38908138 41.29659027 47.19610272 41.29659027s47.19610273-31.63143069 47.19610273-41.29659027V666.83083304h325.97946752c47.57266744 0 74.81084453-25.60639632 74.81084452-70.4175899V305.45428769c0-43.05389192-26.61056854-66.77746468-74.81084452-66.77746468zM456.26843184 576.95740208h-274.8921968c-7.40577131 0-10.79485372-1.38073693-12.30111154-2.13386636l-1.12969414-0.62760751-0.37656471-1.12969414c-0.25104279-0.75312943-0.75312943-2.63595299-0.75312942-5.77399054V334.57528834c0-3.0125177 0.50208662-4.89534023 0.75312942-5.77399157l1.50625885-1.75730165c1.38073693-0.75312943 4.89534023-2.13386636 12.30111154-2.13386636h274.76667488l0.12552192 252.04727332z m400.91583293-9.53963767c0 3.0125177-0.50208662 4.76981935-0.87865134 5.77399157l-1.50625782 1.75730165c-1.38073693 0.75312943-4.76981935 2.13386636-12.30111256 2.13386636H550.66063729V324.91012876h291.83760576c7.53129322 0 10.9203746 1.38073693 12.30111256 2.25938725l1.50625782 1.63178076c0.25104279 0.87865134 0.87865134 2.63595299 0.87865134 5.77399157v232.84247607z m0 0" fill="#FFFFFF" p-id="1201"></path></svg>
