<svg t="1732324389954" class="icon" viewBox="0 0 1024 1024" version="1.1" xmlns="http://www.w3.org/2000/svg" p-id="851" xmlns:xlink="http://www.w3.org/1999/xlink" width="48" height="48"><path d="M589.61066667 681.984c68.608 102.4 189.44 160.256 363.008 182.272-19.456 19.456-43.008 56.32-54.272 80.896-181.248-30.208-302.08-101.376-378.368-226.304-48.64 92.672-157.696 172.544-384.512 226.304-10.24-18.944-34.816-54.272-54.272-73.216 219.648-46.08 314.368-113.664 355.84-189.44H100.13866667s-34.816-1.024-34.816-40.96 34.816-39.936 34.816-39.936h93.696V385.536h271.36V284.16h91.136v101.376h286.208v216.064h87.04s34.816 2.56 34.816 43.008-34.816 37.888-34.816 37.888h-339.968zM301.86666667 240.128H110.37866667s-52.224 4.608-52.224-39.424 52.224-38.4 52.224-38.4H301.86666667V82.432S308.01066667 35.84 347.94666667 35.84s39.936 46.592 39.936 46.592v79.872h248.832V82.432s2.048-46.592 43.52-46.592c41.984 0 43.52 46.592 43.52 46.592v79.872H916.26666667s46.592-2.048 46.592 38.4-46.592 39.424-46.592 39.424h-192.512v79.36s0 46.592-45.056 46.592c-38.4 0-41.984-46.592-41.984-46.592V240.128H387.88266667v79.36s-3.072 46.592-44.032 46.592c-41.472 0-41.984-46.592-41.984-46.592V240.128z m160.256 360.96c2.048-17.92 2.56-35.84 2.56-53.248V461.312H277.29066667v139.776h184.832z m93.696-139.776v87.04c0 17.92-1.024 34.816-2.56 52.736h200.704V461.312h-198.144z" fill="#ffffff" p-id="852"></path></svg>
