<?xml version="1.0"?>
<svg xmlns="http://www.w3.org/2000/svg" fill="#FFFFFF" height="640" width="640" viewBox="-64, -64, 640, 640">
  <path d="m212.1440277 306.7405701 48.3848114-192.8371277 47.8457642 189.4749146 28.2218323-163.118103c3.3505554-23.2881622-.6054688-26.5026932-11.6362305-35.9091568l109.1490784.1842499c-12.3432617 10.6467209-22.0771484 25.9615402-30.6175537 48.6248093-15.7217407 71.423996-30.2530212 147.8040161-42.0431824 227.6177063-2.3466492 12.9977417.9198608 26.2226562 13.0315247 39.8054504h-101.3564759c4.470459-13.1298523 4.737915-27.6260681 2.4144287-42.9646301l-14.5508728-81.2958069s-18.9549713 80.2427368-20.2186432 94.3536682c-1.4898682 16.6368713 6.4686279 29.9067688 6.4686279 29.9067688h-103.0152435c21.1186981-17.1608276 20.7266998-22.956604 14.5400085-51.8102722-14.6965179-70.7435913-33.1136093-145.6206512-55.5222778-224.9324188-2.3167191-24.8520584-24.088623-40.4372711-24.088623-40.4372711l103.3572845-.0000153s-7.7662811 24.6414795-.8161316 58.1286011c6.7850495 43.3213957 17.6924286 92.8669279 30.4518738 145.2086333zm-97.0739136-225.2750779v-36.2960662c3.1176529-8.5297203 13.6475983-18.6390514 25.9420166-28.5640697l-.0000153-5.3260736h-141.0121154v5.0891161c13.5703583 11.328474 25.8580761 23.179533 25.8869591 30.6965504v417.9565125c0 6.2966614-14.2841749 21.9258728-25.8869591 29.6370544v6.0621948h140.3724213v-5.393219c-5.0540619-3.8036804-27.7766266-21.0841675-26.0368195-32.5366821v-198.5600054l-32.531456-126.1819763c-1.9458008-8.671463-7.3285446-17.3984146-18.6390686-26.2210617-12.6366463-11.6888962.3660774-31.8587799 11.5492783-30.3622742zm319.9514008-1.1319656c15.8583069 0 26.5757446 19.7013245 13.6893005 32.5877838-13.9071655 12.8864594-20.8925781 27.180954-22.8383789 35.852417-9.1087036 38.3741302-18.1123352 86.4005585-27.0760498 138.0978241l.9775085 174.3596191c1.7398071 11.4525146-21.9602661 30.2926025-27.0143127 34.0963135v5.393219h139.2404175v-6.0622253c-11.6027832-7.7111816-25.8869629-23.3403931-25.8869629-29.6370544l-.000061-417.9563904c.0289001-7.5170174 12.3166199-19.3680725 25.8869629-30.6965446v-5.0891142l-139.8800964-.000001v5.3260727c12.2944031 9.9250164 22.8243408 20.0343437 25.9420166 28.564064v35.1640167zm-134.4511414-33.584507c1.2636719-8.2138252 14.4798584-21.3506794 26.7742615-31.2756996v-4.1940384h-141.0121155v5.0891161c13.5703583 11.328474 27.0449524 22.7986279 27.0449524 33.5397797l-.9477539 172.8062086 29.1605835-117.5864639c5.8021698-18.5384979 29.3120728-18.7901154 35.4344177-.3792496l29.2321167 117.9657135c.2120362-43.0254669-2.4060363-107.2139282-5.6864624-175.9653664zm-85.8718567 387.3455849v30.9275818c-4.1069183 11.6889038-16.2696991 22.4300537-26.536972 30.0120544v5.054657h141.0302887v-5.054657c-11.0273743-6.9856262-20.3473511-15.1329651-28.2481689-28.4324951v-32.5071411z"/>
</svg>
