<?xml version="1.0" encoding="UTF-8"?>
<svg xmlns="http://www.w3.org/2000/svg" version="1.1" width="1024" height="1024">
  <path d="M0 0 C18.48249265 14.7126531 33.43517534 34.21405813 45.30957031 54.51416016 C46.12261023 55.9005516 46.94321227 57.28251811 47.76855469 58.66162109 C62.96761799 84.08429265 75.25062281 111.46698004 83.05566406 140.07836914 C84.07690444 143.69028439 85.08720044 146.84903151 87.01171875 150.08203125 C94.2326554 154.11691856 105.37886391 151.00622152 113.32040405 150.26947021 C125.9108968 149.1072287 138.50546862 148.09841112 151.125 147.3125 C152.90704834 147.19962646 152.90704834 147.19962646 154.72509766 147.08447266 C157.90558367 146.89246122 161.08639122 146.71588611 164.26843262 146.55178833 C165.74773551 146.47384375 167.22682147 146.39169591 168.70568848 146.30587769 C189.15381294 145.13584053 209.62805839 145.2500835 230.10205078 145.25219727 C234.21016911 145.25227789 238.31817439 145.24542478 242.42626953 145.23168945 C279.52821195 145.10982829 316.40841348 146.30735422 353.375 149.5625 C356.54583217 149.83780083 359.71682037 150.11064749 362.88832092 150.37814331 C364.80770431 150.54032118 366.72673379 150.70678605 368.64524841 150.87893677 C373.22847331 151.2692154 377.81011431 151.54696301 382.40844727 151.67529297 C383.29951675 151.70283661 384.19058624 151.73038025 385.10865784 151.75875854 C387.48365336 151.62416192 387.48365336 151.62416192 389.17160034 150.12765503 C391.20304017 147.41539563 392.01870799 144.27744382 393.00390625 141.078125 C393.48891343 139.56531923 393.97427943 138.05262847 394.45996094 136.54003906 C394.71096558 135.74762817 394.96197021 134.95521729 395.22058105 134.13879395 C400.09259075 118.81618993 405.5106915 103.96873956 412.4375 89.4375 C412.78232422 88.70772949 413.12714844 87.97795898 413.48242188 87.22607422 C415.69700625 82.57350441 418.0261586 77.99087879 420.4375 73.4375 C420.80810547 72.73351074 421.17871094 72.02952148 421.56054688 71.30419922 C432.45165222 50.75879043 445.41268856 31.35116786 461.4375 14.4375 C461.91558105 13.92155273 462.39366211 13.40560547 462.88623047 12.87402344 C475.09261371 -0.24523857 487.80211088 -9.55124908 506.234375 -10.55859375 C519.56675821 -10.57485275 529.31451288 -4.51942026 538.62109375 4.55859375 C546.84641318 12.84991373 552.73148449 22.33400962 558.4375 32.4375 C558.81551758 33.10168945 559.19353516 33.76587891 559.58300781 34.45019531 C565.52322303 44.9761958 570.23270141 55.79636274 574.52709961 67.0859375 C575.11068842 68.59334631 575.71160868 70.09422649 576.33422852 71.5859375 C580.00306198 80.39037486 582.82336848 89.49180093 585.75 98.5625 C586.18427307 99.90606064 586.18427307 99.90606064 586.62731934 101.27676392 C618.69796246 200.6073495 634.13811622 305.16599305 662.01068115 578.25335026 C662.29524294 582.4003808 662.58724722 586.54680017 662.88540459 590.69287491 C665.3780099 625.3738544 666.80440042 659.9105908 666.75 694.6875 C666.74841574 695.91682377 666.74841574 695.91682377 666.74679947 697.17098236 C666.73794373 702.64015713 666.7122971 708.10907001 666.67578125 713.578125 C666.67037323 714.61107759 666.67037323 714.61107759 666.66485596 715.66489792 C666.61940727 723.30300267 666.41102341 730.91616213 665.97021484 738.54077148 C665.92989797 739.23840481 665.88958109 739.93603813 665.84804249 740.65481186 C665.47812235 746.58180231 664.75829578 752.40066044 663.75 758.25 C663.57847412 759.25844971 663.40694824 760.26689941 663.23022461 761.3059082 C661.43873052 771.27858473 658.71529623 780.85981027 655.4375 790.4375 C654.83615234 792.20287109 654.83615234 792.20287109 654.22265625 794.00390625 C651.24184596 802.18357086 647.39397516 809.90498541 643.38232422 817.6171875 C642.55689268 819.20747626 641.74774847 820.80619756 640.94140625 822.40625 C636.85145008 830.28491912 631.72190611 837.33271319 626.4375 844.4375 C625.839375 845.2521875 625.24125 846.066875 624.625 846.90625 C617.69459434 856.1023652 609.6071649 864.3483391 601.4375 872.4375 C602.38141602 872.58783691 603.32533203 872.73817383 604.29785156 872.89306641 C678.12845358 884.70348983 678.12845358 884.70348983 689.4375 895.4375 C690.6875 898.3125 690.6875 898.3125 690.4375 901.4375 C669.48170619 927.22924622 598.47851794 926.16060361 568.05541992 929.32373047 C507.81071893 935.47974781 447.20479715 938.62084354 386.6875 940.625 C385.02809891 940.68025848 385.02809891 940.68025848 383.33517456 940.7366333 C375.74985896 940.98355493 368.16384807 941.18953484 360.57697296 941.3820076 C358.30732733 941.44087634 356.03779133 941.50314835 353.76824951 941.56588745 C316.83911861 942.57628294 279.9122345 942.63897319 242.97241306 942.62572432 C240.54341434 942.62499426 238.114416 942.62474796 235.68541718 942.6246376 C185.96643452 942.62119747 136.28086561 942.39472793 86.59101105 940.51834869 C84.40233734 940.4361799 82.21360233 940.35586903 80.02484131 940.27606201 C-105.90584035 933.48141926 -105.90584035 933.48141926 -213.5625 902.4375 C-214.0625 899.625 -214.0625 899.625 -213.5625 896.4375 C-198.57899661 879.37295447 -162.64577815 878.73119185 -141.52890015 875.39659119 C-135.85662283 874.49733587 -130.20540513 873.50476671 -124.5625 872.4375 C-125.20670898 871.89085693 -125.85091797 871.34421387 -126.51464844 870.78100586 C-163.89035628 838.76227102 -185.07515187 788.82539768 -189.28390503 740.65805054 C-190.35630294 725.87980814 -190.01198454 710.97041914 -189.94942474 696.16413879 C-189.93733703 693.14682013 -189.92989768 690.12951812 -189.92340088 687.11218262 C-189.84817411 656.71999967 -189.16080651 626.49786273 -186.84436035 596.1842041 C-186.53337118 592.05029738 -186.23731231 587.91548754 -185.94433594 583.78027344 C-182.68569642 537.89152664 -178.71103769 492.08692388 -173.96557617 446.328125 C-173.5896421 442.69948457 -173.21740251 439.07048239 -172.84570312 435.44140625 C-166.97307099 378.47819419 -159.13473073 321.4831359 -149.04107666 265.11181641 C-148.54960396 262.3654361 -148.06245421 259.61831102 -147.57568359 256.87109375 C-139.08010617 209.08077897 -128.54774324 161.53983774 -114.6875 115 C-114.47056488 114.2694339 -114.25362976 113.5388678 -114.03012085 112.78616333 C-106.35378735 87.07552551 -97.40438815 61.03795223 -84.5625 37.4375 C-83.84885664 36.08468906 -83.13531829 34.73182272 -82.421875 33.37890625 C-77.58572869 24.35888155 -72.0431 16.34583976 -65.5625 8.4375 C-65.03011719 7.74011719 -64.49773437 7.04273437 -63.94921875 6.32421875 C-47.9523579 -13.99855376 -19.88381495 -15.12699232 0 0 Z " fill="#EA7D40" transform="translate(272.5625,26.5625)"/>
  <path d="M0 0 C7.46662648 -0.02572084 14.93324121 -0.04301929 22.39990234 -0.05493164 C24.93083116 -0.05990683 27.4617572 -0.06668938 29.99267578 -0.07543945 C84.78962876 -0.25990444 127.96636206 7.5572357 175.96777344 35.25097656 C217.65977007 59.29940361 257.85476987 76.89987653 307 68 C308.11117188 67.80535156 309.22234375 67.61070312 310.3671875 67.41015625 C327.01490488 64.16135228 342.86168315 58.47872624 358.59472656 52.25170898 C359.65916992 51.83091064 360.72361328 51.4101123 361.8203125 50.9765625 C362.77180176 50.59580566 363.72329102 50.21504883 364.70361328 49.82275391 C367 49 367 49 369 49 C369.1959375 49.64066406 369.391875 50.28132813 369.59375 50.94140625 C372.21844166 58.53264808 376.0075518 63.09022979 382.95703125 67.140625 C389.63514682 69.94977495 397.29231816 69.38638681 404 67 C411.79208425 62.80426232 415.39366443 56.74694308 419 49 C420.48956551 49.55858706 421.97909708 50.1172647 423.46850586 50.67626953 C424.85423192 51.19552129 426.24048596 51.71336565 427.62719727 52.22998047 C432.0341568 53.87475523 436.42650935 55.55168976 440.80859375 57.26171875 C452.43785555 61.76589851 463.77439475 65.54396323 476 68 C477.64662897 68.3925104 479.29262478 68.78770394 480.9375 69.1875 C506.84955097 74.75463352 538.9400972 72.42924003 564 64 C564.64582031 63.78472656 565.29164063 63.56945312 565.95703125 63.34765625 C584.75670066 56.98524423 599.91422838 46.41561655 616 35 C644.44972614 14.82208034 673.56795933 4.28395509 708.4375 1.3125 C709.15804565 1.24896332 709.87859131 1.18542664 710.62097168 1.1199646 C735.6551953 -1.00738732 760.90265315 -0.26364769 786 0 C795.43410973 71.41455557 800.62589889 143.60655459 804.8125 215.5 C804.87602661 216.58499786 804.93955322 217.66999573 805.00500488 218.78787231 C805.18094105 221.82710231 805.35155568 224.86657061 805.51953125 227.90625 C805.56924576 228.77390488 805.61896027 229.64155975 805.67018127 230.5355072 C806.6663462 249.19311831 806.6663462 249.19311831 803.4375 257 C803.16212402 257.68513672 802.88674805 258.37027344 802.60302734 259.07617188 C795.07360764 277.18759363 780.00389235 291.06998548 764 302 C763.33758301 302.45262207 762.67516602 302.90524414 761.99267578 303.37158203 C748.60443629 312.38951981 734.40063153 319.75097671 720 327 C718.87811279 327.57443848 717.75622559 328.14887695 716.6003418 328.74072266 C708.67651795 332.76896461 700.6654875 336.39009938 692.4375 339.75 C691.82991852 339.99990692 691.22233704 340.24981384 690.59634399 340.5072937 C676.50979348 346.3003178 662.27006818 351.67798933 648 357 C647.38445755 357.2329628 646.7689151 357.4659256 646.13471985 357.70594788 C641.32973167 359.5216477 636.49952927 361.24870581 631.64453125 362.92578125 C630.86882278 363.19404221 630.09311432 363.46230316 629.29389954 363.73869324 C626.80091014 364.5990055 624.30692884 365.45637068 621.8125 366.3125 C620.96129578 366.60479492 620.11009155 366.89708984 619.23309326 367.19824219 C607.27465586 371.2952838 595.30015667 375.10865531 583.09667969 378.41455078 C579.78753344 379.33855319 576.52108914 380.3881249 573.25 381.4375 C535.07703161 393.53310293 495.90358848 402.40608917 456.7734375 410.7578125 C455.48912842 411.03206055 454.20481934 411.30630859 452.8815918 411.58886719 C450.50095737 412.09548558 448.11965539 412.59898213 445.73754883 413.09863281 C444.6833374 413.32131836 443.62912598 413.54400391 442.54296875 413.7734375 C441.63571045 413.96341309 440.72845215 414.15338867 439.79370117 414.34912109 C437.72384777 414.83135732 435.67175049 415.3912225 433.63305664 415.99169922 C429.888824 417.03085524 426.16016792 417.75541297 422.328125 418.359375 C421.25534302 418.53055092 421.25534302 418.53055092 420.16088867 418.70518494 C405.03743646 421.06858273 391.14375748 423.05009656 376 420 C373.68797144 419.58331314 371.37542261 419.16950777 369.0625 418.7578125 C353.03763082 415.83344722 337.14996594 412.31503943 321.27734375 408.6640625 C314.71767495 407.15539902 308.14409597 405.7218566 301.5625 404.3125 C288.12856945 401.41405575 274.8688256 397.99612316 261.62036133 394.34960938 C255.91857116 392.78316741 250.20647899 391.26794512 244.47949219 389.79638672 C227.72455007 385.48871002 211.01720575 380.90921867 194.67260742 375.21679688 C189.82420022 373.54369847 184.92148003 372.0916018 179.99609375 370.6640625 C171.41749319 368.16719914 162.94815765 365.40536078 154.5 362.5 C153.75931274 362.24599426 153.01862549 361.99198853 152.25549316 361.73028564 C12.68102023 313.71610335 12.68102023 313.71610335 -14 263 C-14.5573584 261.96141846 -14.5573584 261.96141846 -15.12597656 260.90185547 C-19.58598171 250.85933186 -18.60228585 239.75145595 -18.5 229 C-18.4947934 227.87109344 -18.48958679 226.74218689 -18.48422241 225.57907104 C-18.34045551 198.56901219 -16.44934432 171.70461507 -14.30072021 144.79150391 C-13.99995755 140.99946478 -13.7069703 137.20690328 -13.41650391 133.4140625 C-4.13373981 12.40121942 -4.13373981 12.40121942 0 0 Z " fill="#F9E3DD" transform="translate(118,434)"/>
  <path d="M0 0 C18.48249265 14.7126531 33.43517534 34.21405813 45.30957031 54.51416016 C46.12261023 55.9005516 46.94321227 57.28251811 47.76855469 58.66162109 C62.96761799 84.08429265 75.25062281 111.46698004 83.05566406 140.07836914 C84.07690444 143.69028439 85.08720044 146.84903151 87.01171875 150.08203125 C94.2326554 154.11691856 105.37886391 151.00622152 113.32040405 150.26947021 C125.9108968 149.1072287 138.50546862 148.09841112 151.125 147.3125 C152.90704834 147.19962646 152.90704834 147.19962646 154.72509766 147.08447266 C157.90558367 146.89246122 161.08639122 146.71588611 164.26843262 146.55178833 C165.74773551 146.47384375 167.22682147 146.39169591 168.70568848 146.30587769 C189.15381294 145.13584053 209.62805839 145.2500835 230.10205078 145.25219727 C234.21016911 145.25227789 238.31817439 145.24542478 242.42626953 145.23168945 C279.52821195 145.10982829 316.40841348 146.30735422 353.375 149.5625 C356.54583217 149.83780083 359.71682037 150.11064749 362.88832092 150.37814331 C364.80770431 150.54032118 366.72673379 150.70678605 368.64524841 150.87893677 C373.22847331 151.2692154 377.81011431 151.54696301 382.40844727 151.67529297 C383.29951675 151.70283661 384.19058624 151.73038025 385.10865784 151.75875854 C387.48365336 151.62416192 387.48365336 151.62416192 389.17160034 150.12765503 C391.20304017 147.41539563 392.01870799 144.27744382 393.00390625 141.078125 C393.48891343 139.56531923 393.97427943 138.05262847 394.45996094 136.54003906 C394.71096558 135.74762817 394.96197021 134.95521729 395.22058105 134.13879395 C400.09259075 118.81618993 405.5106915 103.96873956 412.4375 89.4375 C412.78232422 88.70772949 413.12714844 87.97795898 413.48242188 87.22607422 C415.69700625 82.57350441 418.0261586 77.99087879 420.4375 73.4375 C420.80810547 72.73351074 421.17871094 72.02952148 421.56054688 71.30419922 C432.45165222 50.75879043 445.41268856 31.35116786 461.4375 14.4375 C461.91558105 13.92155273 462.39366211 13.40560547 462.88623047 12.87402344 C475.09261371 -0.24523857 487.80211088 -9.55124908 506.234375 -10.55859375 C519.56675821 -10.57485275 529.31451288 -4.51942026 538.62109375 4.55859375 C546.84641318 12.84991373 552.73148449 22.33400962 558.4375 32.4375 C558.81551758 33.10168945 559.19353516 33.76587891 559.58300781 34.45019531 C565.52322303 44.9761958 570.23270141 55.79636274 574.52709961 67.0859375 C575.11068842 68.59334631 575.71160868 70.09422649 576.33422852 71.5859375 C580.00306198 80.39037486 582.82336848 89.49180093 585.75 98.5625 C586.18427307 99.90606064 586.18427307 99.90606064 586.62731934 101.27676392 C618.69796246 200.6073495 634.13811622 305.16599305 662.01068115 578.25335026 C662.29524294 582.4003808 662.58724722 586.54680017 662.88540459 590.69287491 C665.3780099 625.3738544 666.80440042 659.9105908 666.75 694.6875 C666.74841574 695.91682377 666.74841574 695.91682377 666.74679947 697.17098236 C666.73794373 702.64015713 666.7122971 708.10907001 666.67578125 713.578125 C666.67037323 714.61107759 666.67037323 714.61107759 666.66485596 715.66489792 C666.61940727 723.30300267 666.41102341 730.91616213 665.97021484 738.54077148 C665.92989797 739.23840481 665.88958109 739.93603813 665.84804249 740.65481186 C665.47812235 746.58180231 664.75829578 752.40066044 663.75 758.25 C663.57847412 759.25844971 663.40694824 760.26689941 663.23022461 761.3059082 C661.43873052 771.27858473 658.71529623 780.85981027 655.4375 790.4375 C654.83615234 792.20287109 654.83615234 792.20287109 654.22265625 794.00390625 C651.24184596 802.18357086 647.39397516 809.90498541 643.38232422 817.6171875 C642.55689268 819.20747626 641.74774847 820.80619756 640.94140625 822.40625 C636.85145008 830.28491912 631.72190611 837.33271319 626.4375 844.4375 C625.839375 845.2521875 625.24125 846.066875 624.625 846.90625 C617.69459434 856.1023652 609.6071649 864.3483391 601.4375 872.4375 C602.38141602 872.58783691 603.32533203 872.73817383 604.29785156 872.89306641 C678.12845358 884.70348983 678.12845358 884.70348983 689.4375 895.4375 C690.6875 898.3125 690.6875 898.3125 690.4375 901.4375 C669.48170619 927.22924622 598.47851794 926.16060361 568.05541992 929.32373047 C507.81071893 935.47974781 447.20479715 938.62084354 386.6875 940.625 C385.02809891 940.68025848 385.02809891 940.68025848 383.33517456 940.7366333 C375.74985896 940.98355493 368.16384807 941.18953484 360.57697296 941.3820076 C358.30732733 941.44087634 356.03779133 941.50314835 353.76824951 941.56588745 C316.83911861 942.57628294 279.9122345 942.63897319 242.97241306 942.62572432 C240.54341434 942.62499426 238.114416 942.62474796 235.68541718 942.6246376 C185.96643452 942.62119747 136.28086561 942.39472793 86.59101105 940.51834869 C84.40233734 940.4361799 82.21360233 940.35586903 80.02484131 940.27606201 C-105.90584035 933.48141926 -105.90584035 933.48141926 -213.5625 902.4375 C-214.0625 899.625 -214.0625 899.625 -213.5625 896.4375 C-198.57899661 879.37295447 -162.64577815 878.73119185 -141.52890015 875.39659119 C-135.85662283 874.49733587 -130.20540513 873.50476671 -124.5625 872.4375 C-125.20670898 871.89085693 -125.85091797 871.34421387 -126.51464844 870.78100586 C-163.89035628 838.76227102 -185.07515187 788.82539768 -189.28390503 740.65805054 C-190.35630294 725.87980814 -190.01198454 710.97041914 -189.94942474 696.16413879 C-189.93733703 693.14682013 -189.92989768 690.12951812 -189.92340088 687.11218262 C-189.84817411 656.71999967 -189.16080651 626.49786273 -186.84436035 596.1842041 C-186.53337118 592.05029738 -186.23731231 587.91548754 -185.94433594 583.78027344 C-182.68569642 537.89152664 -178.71103769 492.08692388 -173.96557617 446.328125 C-173.5896421 442.69948457 -173.21740251 439.07048239 -172.84570312 435.44140625 C-166.97307099 378.47819419 -159.13473073 321.4831359 -149.04107666 265.11181641 C-148.54960396 262.3654361 -148.06245421 259.61831102 -147.57568359 256.87109375 C-139.08010617 209.08077897 -128.54774324 161.53983774 -114.6875 115 C-114.47056488 114.2694339 -114.25362976 113.5388678 -114.03012085 112.78616333 C-106.35378735 87.07552551 -97.40438815 61.03795223 -84.5625 37.4375 C-83.84885664 36.08468906 -83.13531829 34.73182272 -82.421875 33.37890625 C-77.58572869 24.35888155 -72.0431 16.34583976 -65.5625 8.4375 C-65.03011719 7.74011719 -64.49773437 7.04273437 -63.94921875 6.32421875 C-47.9523579 -13.99855376 -19.88381495 -15.12699232 0 0 Z M-54.83740234 8.96240234 C-75.91011379 35.74754693 -87.1036409 69.55958552 -97.1875 101.6875 C-97.5182251 102.72729004 -97.8489502 103.76708008 -98.18969727 104.83837891 C-100.081929 111.04246721 -101.19702204 116.95873452 -101.5625 123.4375 C-102.2225 123.4375 -102.8825 123.4375 -103.5625 123.4375 C-103.71960449 124.20811768 -103.87670898 124.97873535 -104.03857422 125.77270508 C-105.53285731 132.93354609 -107.17288401 140.04034072 -108.9453125 147.13671875 C-109.16254471 148.00728409 -109.37977692 148.87784943 -109.60359192 149.77479553 C-110.06125062 151.60785118 -110.51900125 153.44088387 -110.97683716 155.27389526 C-115.66159769 174.06866286 -119.90535853 192.91770356 -123.74462891 211.90307617 C-123.92087296 212.76987 -124.097117 213.63666382 -124.27870178 214.52972412 C-124.60441913 216.13602459 -124.92667631 217.74303265 -125.24461365 219.35089111 C-125.86946612 222.44126793 -126.5385819 225.36720347 -127.5559082 228.35717773 C-128.92669449 232.5519899 -129.66637721 236.79426463 -130.4453125 241.1328125 C-130.62046387 242.09180954 -130.79561523 243.05080658 -130.97607422 244.03886414 C-131.55270866 247.21233288 -132.12107071 250.38719459 -132.6875 253.5625 C-132.88502869 254.66516205 -133.08255737 255.7678241 -133.28607178 256.90390015 C-139.5141953 291.76944957 -144.77273868 326.76782817 -149.4375 361.875 C-149.65578461 363.51053329 -149.65578461 363.51053329 -149.878479 365.17910767 C-151.43480137 376.89716211 -152.81543129 388.60347033 -153.87077332 400.37748718 C-154.36123779 405.71871198 -155.0904623 410.94869785 -156.04443359 416.22851562 C-157.32586398 424.16589595 -158.03750706 432.19351813 -158.875 440.1875 C-159.03548828 441.7097821 -159.03548828 441.7097821 -159.19921875 443.26281738 C-163.22290675 481.55738035 -166.44739391 519.91599821 -169.3125 558.3125 C-169.36630829 559.0322551 -169.42011658 559.75201019 -169.47555542 560.49357605 C-170.19611678 570.13984693 -170.89423212 579.78744055 -171.5625 589.4375 C-171.65535782 590.75278183 -171.65535782 590.75278183 -171.75009155 592.09463501 C-172.63464964 604.85612281 -172.81320347 617.61817091 -172.85766602 630.40795898 C-172.86928497 632.73191365 -172.88988903 635.05583967 -172.91918945 637.37963867 C-172.96199294 640.79363537 -172.97803763 644.20686176 -172.98828125 647.62109375 C-173.00578934 648.64528915 -173.02329742 649.66948456 -173.04133606 650.72471619 C-172.98985436 668.00776824 -163.22257422 680.67321061 -151.5625 692.4375 C-150.74136719 693.27152344 -149.92023438 694.10554687 -149.07421875 694.96484375 C-136.13116642 707.38453782 -120.18423719 716.78147634 -104.5625 725.4375 C-103.78777344 725.86740234 -103.01304687 726.29730469 -102.21484375 726.74023438 C-67.4867258 745.83233774 -29.95573484 759.56275932 7.4375 772.4375 C8.45859863 772.79070313 9.47969727 773.14390625 10.53173828 773.5078125 C20.30010959 776.87495932 30.08575555 779.98634571 40.06494141 782.66772461 C44.65106962 783.9077835 49.13430141 785.31538583 53.625 786.875 C60.91991133 789.36938903 68.31992652 791.31514537 75.79174805 793.20678711 C80.96869367 794.5191303 86.11428083 795.90277207 91.24609375 797.3828125 C98.44716844 799.4568989 105.68099997 801.37997627 112.9375 803.25 C113.59580811 803.41980377 114.25411621 803.58960754 114.93237305 803.76455688 C134.87825471 808.89916094 154.9400719 813.54810575 175.08398438 817.84057617 C176.36885742 818.11478394 176.36885742 818.11478394 177.6796875 818.39453125 C178.4104248 818.54897705 179.14116211 818.70342285 179.89404297 818.86254883 C182.00688354 819.34015869 184.10946647 819.86287892 186.20874023 820.39697266 C190.3992829 821.45138755 194.6125961 822.31413863 198.85546875 823.12890625 C199.63457108 823.279077 200.4136734 823.42924774 201.21638489 823.58396912 C202.85567729 823.8986704 204.49522337 824.21205287 206.13500977 824.52416992 C208.60243123 824.99568717 211.06776484 825.47722075 213.53320312 825.95898438 C228.08990969 828.76718056 241.02585178 829.8184531 255.71264648 827.54150391 C257.99844663 827.18774041 260.28661998 826.85585638 262.57617188 826.52734375 C270.05000545 825.43040806 277.34789437 824.09973523 284.6574707 822.16113281 C289.48179486 820.90537653 294.37005155 819.95037584 299.25 818.9375 C339.94943648 810.3371952 380.74753911 800.9703064 420.39746094 788.31176758 C423.79956302 787.23320564 427.20589891 786.2131356 430.65234375 785.28515625 C443.36046175 781.84475482 455.79707797 777.6951314 468.25 773.4375 C469.12655243 773.13844757 470.00310486 772.83939514 470.90621948 772.53128052 C482.15639615 768.68646318 493.33720259 764.69588366 504.4375 760.4375 C505.07904022 760.19205444 505.72058044 759.94660889 506.38156128 759.69372559 C550.47661553 742.80060809 595.91780282 724.68434699 630.4375 691.4375 C631.18773437 690.75042969 631.93796875 690.06335938 632.7109375 689.35546875 C640.24984186 682.2642771 645.08397902 673.99096351 648.875 664.4375 C649.26389404 663.49583984 649.26389404 663.49583984 649.66064453 662.53515625 C653.16923648 653.10174614 651.35050122 642.22372623 650.7734375 632.37890625 C650.70110397 631.11450211 650.62877045 629.85009796 650.554245 628.54737854 C650.31330621 624.36453762 650.06339003 620.18225401 649.8125 616 C649.74783602 614.91514439 649.74783602 614.91514439 649.68186569 613.8083725 C645.92774672 550.87269884 641.08761705 487.86700141 633.6875 425.25 C633.58049774 424.34102966 633.47349548 423.43205933 633.36325073 422.49554443 C633.06504937 419.98204615 632.76068967 417.46939915 632.453125 414.95703125 C632.36480911 414.21722519 632.27649323 413.47741913 632.1855011 412.7151947 C631.74436428 408.95654288 631.74436428 408.95654288 630.4375 405.4375 C630.26913186 403.95440386 630.1527847 402.46524605 630.06274414 400.9753418 C629.99953476 400.03116898 629.93632538 399.08699615 629.87120056 398.11421204 C629.80155594 397.06976425 629.73191132 396.02531647 629.66015625 394.94921875 C628.5109628 379.39578913 626.38571427 364.00278025 624.20249176 348.56903458 C623.87052144 346.21828639 623.54123505 343.86717528 623.21258545 341.51596069 C618.59287673 308.50808456 613.42325325 275.59056438 607.3046875 242.82421875 C607.14654572 241.96423782 606.98840393 241.1042569 606.82546997 240.21821594 C605.98862102 235.80824111 604.89782311 231.69038368 603.4375 227.4375 C602.93295677 225.22764472 602.46544108 223.00913803 602.02734375 220.78515625 C601.76168007 219.45682738 601.49580046 218.12854168 601.22973633 216.80029297 C601.09097076 216.10111755 600.9522052 215.40194214 600.80923462 214.68157959 C598.02052694 200.67120942 594.97480868 186.72863011 591.75 172.8125 C591.471064 171.60534836 591.471064 171.60534836 591.18649292 170.37380981 C589.61074937 163.56440573 588.03417196 156.75605364 586.31396484 149.98144531 C586.132061 149.26485748 585.95015717 148.54826965 585.76274109 147.80996704 C585.26556301 145.8639274 584.76228456 143.91944914 584.25854492 141.97509766 C583.44098683 138.45252354 582.89411705 135.02089498 582.4375 131.4375 C581.7775 131.4375 581.1175 131.4375 580.4375 131.4375 C580.24269043 129.94706177 580.24269043 129.94706177 580.04394531 128.42651367 C578.13271432 115.12276923 574.00025007 102.30849431 569.6875 89.625 C569.42260773 88.83968903 569.15771545 88.05437805 568.88479614 87.24526978 C552.40508559 35.64145277 552.40508559 35.64145277 517.4375 -3.5625 C511.00151875 -6.62972854 504.21985408 -6.77226077 497.4453125 -4.60546875 C471.31589203 7.41960937 454.36556338 35.59016909 440.4375 59.4375 C440.02435547 60.13214355 439.61121094 60.82678711 439.18554688 61.54248047 C423.13765452 88.60899305 402.4375 128.27561632 402.4375 160.4375 C401.7775 160.1075 401.1175 159.7775 400.4375 159.4375 C398.9794926 159.22120795 397.51402916 159.05411261 396.046875 158.91259766 C395.12538666 158.82215179 394.20389832 158.73170593 393.25448608 158.63851929 C391.73632797 158.49647568 391.73632797 158.49647568 390.1875 158.3515625 C389.12745758 158.25001862 388.06741516 158.14847473 386.97525024 158.04385376 C383.46320776 157.71064525 379.95049349 157.38552166 376.4375 157.0625 C375.23389832 156.95111694 374.03029663 156.83973389 372.79022217 156.72497559 C347.36983252 154.38869571 321.93342103 152.68352078 296.4375 151.4375 C295.68043762 151.39989563 294.92337524 151.36229126 294.14337158 151.32354736 C284.24391702 150.8372394 274.34744985 150.55807428 264.4375 150.4375 C263.08703583 150.42106445 263.08703583 150.42106445 261.70928955 150.40429688 C199.41094662 149.6986753 137.39140349 152.88823825 75.4375 159.4375 C75.15777344 158.40496094 74.87804687 157.37242187 74.58984375 156.30859375 C73.23492904 151.3432672 71.84097766 146.38929318 70.4375 141.4375 C70.18581055 140.54417969 69.93412109 139.65085938 69.67480469 138.73046875 C55.63521139 89.35348403 29.36429516 26.79578818 -15.94140625 -2.109375 C-31.3409349 -10.64681861 -44.43510764 -3.47971422 -54.83740234 8.96240234 Z " fill="#D7462D" transform="translate(272.5625,26.5625)"/>
  <path d="M0 0 C0.65564941 0.27875977 1.31129883 0.55751953 1.98681641 0.84472656 C23.23324582 9.92233516 37.58842172 25.5779919 46.18652344 46.90185547 C55.86847741 71.873858 52.22504962 100.50337866 42.02978516 124.7265625 C37.47753479 134.77648079 31.15836664 143.64857225 24 152 C23.2265625 152.99 23.2265625 152.99 22.4375 154 C8.18208123 171.67671927 -16.34116073 184.83750402 -38.7421875 187.67578125 C-41.02886671 187.88295902 -41.02886671 187.88295902 -43 189 C-52.62898281 189.77171939 -62.67350979 189.56887537 -72 187 C-73.22589844 186.74283203 -73.22589844 186.74283203 -74.4765625 186.48046875 C-88.00135728 183.38851714 -99.86749334 176.32942434 -110 167 C-110.63035156 166.46117187 -111.26070312 165.92234375 -111.91015625 165.3671875 C-127.83048751 150.93372089 -135.15433372 127.99520041 -136.3125 107.15234375 C-137.31345649 78.68625324 -126.59199788 52.31610013 -108 31 C-107.46117187 30.31679688 -106.92234375 29.63359375 -106.3671875 28.9296875 C-95.06775633 14.90476539 -77.69707647 4.99218198 -61 -1 C-60.00097656 -1.39316406 -59.00195312 -1.78632813 -57.97265625 -2.19140625 C-40.2943902 -8.11166571 -17.02060166 -7.74522384 0 0 Z " fill="#FCF2F1" transform="translate(697,301)"/>
  <path d="M0 0 C1.6406543 -0.00483398 1.6406543 -0.00483398 3.31445312 -0.00976562 C31.17946949 0.17257535 55.08450506 12.79464794 74.75 31.75 C94.8851616 52.56520377 106.10855303 78.18161208 106.125 107.0625 C106.13724609 108.17882812 106.14949219 109.29515625 106.16210938 110.4453125 C106.2032332 133.96814006 97.41715847 155.51492458 80.9375 172.3125 C65.22584873 187.03463099 43.29247298 195.19662023 21.84765625 194.53515625 C16.09813278 194.20776081 10.57417713 193.48568399 4.9375 192.3125 C3.75671875 192.06757813 2.5759375 191.82265625 1.359375 191.5703125 C-25.99904687 185.10273578 -49.39353914 166.46593825 -64.24609375 142.90625 C-78.88495618 118.79558346 -85.08148187 90.73810043 -79.03515625 62.953125 C-73.30830648 41.51768729 -60.4874029 22.61304147 -41.5625 10.68359375 C-28.22964341 3.37135521 -15.20646985 -0.22481475 0 0 Z " fill="#FBF1F1" transform="translate(354.0625,295.6875)"/>
  <path d="M0 0 C0.90814453 -0.01224609 1.81628906 -0.02449219 2.75195312 -0.03710938 C19.02431359 -0.0720536 33.19699277 6.11371149 45.03125 17.28125 C57.32110185 30.32740043 62.22505973 44.81569059 61.9609375 62.4453125 C61.2892792 79.3781718 53.70615302 93.80130434 41.625 105.5 C26.60446574 118.18930495 8.76619631 120.47261805 -10.1875 119.1875 C-24.58444353 116.65583408 -38.25660794 107.12918405 -46.875 95.5 C-56.82182916 80.46409546 -59.95257806 65.67512092 -57.79296875 47.94921875 C-54.42735785 31.90285451 -44.64832552 18.43071181 -31.26708984 9.29736328 C-21.14524986 2.72447328 -11.8517133 0.00823608 0 0 Z " fill="#010101" transform="translate(637.1875,326.8125)"/>
  <path d="M0 0 C1.00643555 0.00572021 2.01287109 0.01144043 3.04980469 0.01733398 C21.03737486 0.44308377 34.98118434 7.55194641 47.42578125 20.546875 C51.37397934 25.18892439 54.29824292 30.0206728 56.9375 35.5 C57.370625 36.34046875 57.80375 37.1809375 58.25 38.046875 C63.57395013 50.54336905 63.24736267 68.72568584 58.4375 81.375 C51.65879834 97.46826145 38.92317596 110.07421824 22.9375 116.875 C9.22933343 122.13379374 -8.31918615 121.88833745 -21.85351562 116.19384766 C-27.8338252 113.38438137 -33.06200311 109.78847851 -38.0625 105.5 C-39.13564453 104.61054688 -39.13564453 104.61054688 -40.23046875 103.703125 C-50.02576506 94.836203 -57.32747055 80.54931454 -58.20532227 67.35302734 C-58.93311593 49.38341086 -55.84051421 34.21517582 -43.75 20.25 C-31.82583299 7.6678104 -17.50797013 -0.11622938 0 0 Z " fill="#010101" transform="translate(381.0625,326.5)"/>
  <path d="M0 0 C1.010625 0.60714844 2.02125 1.21429687 3.0625 1.83984375 C3.64225586 2.18490967 4.22201172 2.52997559 4.81933594 2.88549805 C11.7757197 7.09001302 18.54309294 11.6100188 25.33251953 16.07666016 C31.14137149 19.89476916 36.98516993 23.62479969 42.9375 27.21484375 C53.46048907 33.56909633 63.78323431 40.23162172 74.11572266 46.88964844 C76.8205364 48.62234271 79.53729668 50.33352033 82.26171875 52.03515625 C83.03894287 52.525 83.81616699 53.01484375 84.61694336 53.51953125 C86.02294939 54.40506646 87.43354542 55.28338061 88.84985352 56.15234375 C93.12754093 58.86559127 96.08202458 61.65825974 99.0625 65.77734375 C99.6875 68.77734375 99.6875 68.77734375 99.0625 71.77734375 C95.14562258 77.44733969 90.30900018 80.43485933 84.4375 83.90234375 C82.54114364 85.04861433 80.64532105 86.19576837 78.75 87.34375 C77.79609375 87.91754395 76.8421875 88.49133789 75.859375 89.08251953 C71.68345871 91.61300233 67.55905423 94.22206481 63.4375 96.83984375 C61.8724498 97.8308144 60.30734565 98.82169986 58.7421875 99.8125 C57.97100586 100.30121582 57.19982422 100.78993164 56.40527344 101.29345703 C51.6699507 104.29275795 46.92919201 107.28346224 42.18920898 110.27539062 C38.21606168 112.78380011 34.2448064 115.29510732 30.27734375 117.8125 C22.21977632 122.92107497 14.13961161 127.98777204 6 132.96484375 C4.84745728 133.66975952 4.84745728 133.66975952 3.67163086 134.38891602 C-1.74244297 137.68741415 -5.35776494 139.47846306 -11.9375 138.77734375 C-13.875 137.77734375 -13.875 137.77734375 -14.9375 135.77734375 C-16.00336944 129.26367773 -16.08560471 122.8613237 -16.08276367 116.27172852 C-16.08612228 115.14384918 -16.0894809 114.01596985 -16.09294128 112.85391235 C-16.10240544 109.14218023 -16.10439196 105.43049342 -16.10546875 101.71875 C-16.10868393 99.12857546 -16.1120482 96.53840109 -16.11555481 93.94822693 C-16.12153433 88.52561952 -16.12343883 83.10302997 -16.12280273 77.68041992 C-16.12220193 71.4308504 -16.13276031 65.18136719 -16.1485464 58.9318195 C-16.16324337 52.89621275 -16.1667896 46.86065257 -16.16619301 40.82502556 C-16.16737072 38.26745183 -16.17178077 35.70987741 -16.17952538 33.15231514 C-16.18935338 29.57225552 -16.18643622 25.99241691 -16.18041992 22.41235352 C-16.18603943 21.36324295 -16.19165894 20.31413239 -16.19744873 19.23323059 C-16.13456724 4.46264816 -16.13456724 4.46264816 -12.25 -0.28515625 C-8.0214092 -1.99944982 -4.17733008 -1.73870255 0 0 Z " fill="#E26129" transform="translate(405.9375,651.22265625)"/>
  <path d="M0 0 C2.56884766 0.37182617 2.56884766 0.37182617 4.25097656 2.03076172 C7.49566871 7.26613444 10.06537605 12.3165725 11.94384766 18.18432617 C12.23074463 19.07498779 12.5176416 19.96564941 12.81323242 20.88330078 C20.13606969 44.60819086 24.21879995 69.13351659 28.00634766 93.62182617 C28.26664261 95.29210373 28.26664261 95.29210373 28.53219604 96.99612427 C30.45694684 109.44683081 32.12083687 121.77137645 32.56884766 134.37182617 C18.59758036 141.03679346 5.23853594 138.50797909 -8.93115234 133.62182617 C-21.07222225 129.24672584 -30.25629011 123.54668841 -39.43115234 114.37182617 C-39.0204432 104.44468565 -36.3683888 94.91209402 -33.99365234 85.30932617 C-33.77283997 84.41042664 -33.55202759 83.5115271 -33.32452393 82.58538818 C-13.47809634 2.06137183 -13.47809634 2.06137183 0 0 Z " fill="#FB9094" transform="translate(776.43115234375,82.628173828125)"/>
  <path d="M0 0 C4.58053957 1.59786264 6.96141685 5.71319117 9.35546875 9.75 C22.47411696 37.26880961 30.1865081 68.44313584 36.75 98.125 C36.95407471 99.04466553 37.15814941 99.96433105 37.3684082 100.91186523 C39.7279333 112.0991404 39.7279333 112.0991404 37.6484375 115.7734375 C23.85218646 129.16191757 1.95582239 137.7836056 -17.1875 138.4375 C-23.19540891 138.25748775 -27.9586983 136.53575859 -33.3125 133.9375 C-32.73367596 123.77171593 -31.59895544 113.7586832 -30.125 103.6875 C-30.01645691 102.93926971 -29.90791382 102.19103943 -29.79608154 101.4201355 C-17.84393983 19.32290322 -17.84393983 19.32290322 -4.3125 0.9375 C-2.3125 -0.0625 -2.3125 -0.0625 0 0 Z " fill="#FB9094" transform="translate(249.3125,83.0625)"/>
  <path d="M0 0 C1.40739549 -0.0164986 2.81470931 -0.04370846 4.22167969 -0.08203125 C17.41139016 -0.43939176 17.41139016 -0.43939176 21.33129883 2.74853516 C24.19584381 6.28802858 24.56428536 7.90494441 24.59739685 12.37164307 C24.60744247 13.434319 24.6174881 14.49699493 24.62783813 15.59187317 C24.63366913 16.76280014 24.63950012 17.93372711 24.64550781 19.14013672 C24.66018349 20.98417336 24.66018349 20.98417336 24.67515564 22.86546326 C24.70516143 26.94887337 24.72681009 31.03224845 24.74536133 35.11572266 C24.75030731 36.15787634 24.75030731 36.15787634 24.75535321 37.22108364 C24.78613663 43.77394335 24.81284362 50.32680764 24.829772 56.87971878 C24.85167569 65.26027331 24.89363728 73.64018689 24.96320957 82.02048516 C25.01047066 87.91356053 25.03470835 93.80646312 25.04196888 99.69972205 C25.04692253 103.21911278 25.06197311 106.73778131 25.10171318 110.25696564 C25.14549227 114.18566039 25.14167784 118.11353317 25.13378906 122.04248047 C25.15378967 123.20531052 25.17379028 124.36814056 25.19439697 125.56620789 C25.11500823 134.36210908 25.11500823 134.36210908 21.6086731 138.07278442 C17.83292659 140.7836336 15.85798395 141.09891865 11.24536133 141.07666016 C10.24376732 141.07815567 10.24376732 141.07815567 9.22193909 141.0796814 C7.81922415 141.07502731 6.41648822 141.0557305 5.01416016 141.02246094 C2.87550733 140.9751251 0.74182952 140.98136579 -1.3972168 140.99462891 C-12.93873031 140.90062051 -12.93873031 140.90062051 -17.56323242 136.35009766 C-18.82083601 133.83489048 -18.70036029 132.09989153 -18.71713257 129.28385925 C-18.72573303 128.21132401 -18.7343335 127.13878876 -18.74319458 126.03375244 C-18.74745453 124.85190369 -18.75171448 123.67005493 -18.75610352 122.45239258 C-18.76428101 121.21167496 -18.7724585 119.97095734 -18.78088379 118.69264221 C-18.80577059 114.57195358 -18.82241133 110.45130169 -18.83666992 106.33056641 C-18.84202953 104.91229051 -18.84740703 103.49401467 -18.85280228 102.07573891 C-18.87443104 96.17633921 -18.89316796 90.27694225 -18.90442467 84.37751293 C-18.92066553 75.92147124 -18.95384591 67.46588893 -19.01082551 59.01002043 C-19.04951972 53.06515277 -19.06905669 47.12040801 -19.07434523 41.17541772 C-19.07799946 37.62430159 -19.09002687 34.0736754 -19.12244797 30.52269554 C-19.15810655 26.56032182 -19.15415899 22.59852511 -19.14672852 18.63598633 C-19.16313385 17.46021027 -19.17953918 16.2844342 -19.19644165 15.07302856 C-19.12833949 6.22308667 -19.12833949 6.22308667 -16.08926392 3.14472961 C-15.25567352 2.55250107 -14.42208313 1.96027252 -13.56323242 1.35009766 C-10.94403808 -1.26909669 -3.74198861 0.03212753 0 0 Z " fill="#E26129" transform="translate(618.563232421875,649.64990234375)"/>
  <path d="M0 0 C1.40739549 -0.0164986 2.81470931 -0.04370846 4.22167969 -0.08203125 C17.41139016 -0.43939176 17.41139016 -0.43939176 21.33129883 2.74853516 C24.19584381 6.28802858 24.56428536 7.90494441 24.59739685 12.37164307 C24.60744247 13.434319 24.6174881 14.49699493 24.62783813 15.59187317 C24.63366913 16.76280014 24.63950012 17.93372711 24.64550781 19.14013672 C24.66018349 20.98417336 24.66018349 20.98417336 24.67515564 22.86546326 C24.70516143 26.94887337 24.72681009 31.03224845 24.74536133 35.11572266 C24.75030731 36.15787634 24.75030731 36.15787634 24.75535321 37.22108364 C24.78613663 43.77394335 24.81284362 50.32680764 24.829772 56.87971878 C24.85167569 65.26027331 24.89363728 73.64018689 24.96320957 82.02048516 C25.01047066 87.91356053 25.03470835 93.80646312 25.04196888 99.69972205 C25.04692253 103.21911278 25.06197311 106.73778131 25.10171318 110.25696564 C25.14549227 114.18566039 25.14167784 118.11353317 25.13378906 122.04248047 C25.15378967 123.20531052 25.17379028 124.36814056 25.19439697 125.56620789 C25.11500823 134.36210908 25.11500823 134.36210908 21.6086731 138.07278442 C17.83292659 140.7836336 15.85798395 141.09891865 11.24536133 141.07666016 C10.24376732 141.07815567 10.24376732 141.07815567 9.22193909 141.0796814 C7.81922415 141.07502731 6.41648822 141.0557305 5.01416016 141.02246094 C2.87550733 140.9751251 0.74182952 140.98136579 -1.3972168 140.99462891 C-12.93873031 140.90062051 -12.93873031 140.90062051 -17.56323242 136.35009766 C-18.82083601 133.83489048 -18.70036029 132.09989153 -18.71713257 129.28385925 C-18.72573303 128.21132401 -18.7343335 127.13878876 -18.74319458 126.03375244 C-18.74745453 124.85190369 -18.75171448 123.67005493 -18.75610352 122.45239258 C-18.76428101 121.21167496 -18.7724585 119.97095734 -18.78088379 118.69264221 C-18.80577059 114.57195358 -18.82241133 110.45130169 -18.83666992 106.33056641 C-18.84202953 104.91229051 -18.84740703 103.49401467 -18.85280228 102.07573891 C-18.87443104 96.17633921 -18.89316796 90.27694225 -18.90442467 84.37751293 C-18.92066553 75.92147124 -18.95384591 67.46588893 -19.01082551 59.01002043 C-19.04951972 53.06515277 -19.06905669 47.12040801 -19.07434523 41.17541772 C-19.07799946 37.62430159 -19.09002687 34.0736754 -19.12244797 30.52269554 C-19.15810655 26.56032182 -19.15415899 22.59852511 -19.14672852 18.63598633 C-19.16313385 17.46021027 -19.17953918 16.2844342 -19.19644165 15.07302856 C-19.12833949 6.22308667 -19.12833949 6.22308667 -16.08926392 3.14472961 C-15.25567352 2.55250107 -14.42208313 1.96027252 -13.56323242 1.35009766 C-10.94403808 -1.26909669 -3.74198861 0.03212753 0 0 Z " fill="#E26129" transform="translate(554.563232421875,649.64990234375)"/>
  <path d="M0 0 C7.04856932 3.2359341 11.08212485 7.7278935 14.953125 14.30859375 C17.0917906 21.55629385 17.22169948 28.46675301 14.078125 35.43359375 C10.82632706 41.17043046 6.38000177 45.20948088 0.703125 48.49609375 C-7.94000728 50.55398239 -15.05741739 50.74790086 -23.046875 46.43359375 C-29.82561913 40.98112565 -34.09292348 35.25533499 -35.2734375 26.51953125 C-35.65587332 19.37401981 -34.01803821 13.98745814 -29.921875 8.12109375 C-21.93368293 -0.68449472 -11.48492345 -3.45468954 0 0 Z " fill="#010100" transform="translate(520.921875,453.87890625)"/>
  <path d="M0 0 C3.63 0 7.26 0 11 0 C10.34 0.66 9.68 1.32 9 2 C9.495 2.495 9.495 2.495 10 3 C10.29463383 4.41190865 10.56090654 5.8297902 10.8125 7.25 C11.89586367 12.1680034 13.3578012 15.28646518 17.72265625 18.1171875 C25.65644322 22.43897205 33.86933199 23.30219938 42.77734375 23.16015625 C43.66990372 23.15495468 44.56246368 23.14975311 45.48207092 23.14439392 C48.30072187 23.1267456 51.11899122 23.09556239 53.9375 23.0625 C56.78096295 23.03486557 59.6243759 23.01019771 62.46791077 22.99131775 C64.22970709 22.97907019 65.99147603 22.96147583 67.75315857 22.93800354 C73.776623 22.8883115 73.776623 22.8883115 76 24 C76 25.98 76 27.96 76 30 C71.52870026 32.23537177 67.29645308 32.30643016 62.40234375 32.30078125 C61.15717735 32.30720894 61.15717735 32.30720894 59.88685608 32.31376648 C58.13104155 32.31949801 56.37520328 32.32001872 54.61938477 32.31567383 C51.97043736 32.31253898 49.32263558 32.33589918 46.67382812 32.36132812 C32.72012718 32.4142506 18.45504664 31.55815353 7.9375 21.1875 C7.298125 20.465625 6.65875 19.74375 6 19 C3.0778196 20.35418116 0.69814496 21.92796137 -1.8125 23.9375 C-10.69189652 30.67076932 -20.57142342 32.31298289 -31.453125 32.30078125 C-32.3163739 32.30506638 -33.1796228 32.3093515 -34.06903076 32.31376648 C-35.87739185 32.31946609 -37.68577584 32.32004264 -39.49414062 32.31567383 C-42.256904 32.31249205 -45.01861685 32.33610195 -47.78125 32.36132812 C-49.54687366 32.36359944 -51.31250018 32.36430539 -53.078125 32.36328125 C-54.30949188 32.37709587 -54.30949188 32.37709587 -55.56573486 32.39118958 C-60.22803546 32.35354325 -63.15090122 31.92746314 -67 29 C-66.125 24.125 -66.125 24.125 -65 23 C-62.04947042 22.96075405 -59.12087381 22.98312921 -56.171875 23.04296875 C-54.32032369 23.06539679 -52.46876034 23.08684773 -50.6171875 23.10742188 C-47.70116354 23.14420099 -44.78575988 23.18676334 -41.87011719 23.24682617 C-21.66019369 23.82876279 -21.66019369 23.82876279 -4 15 C-0.34698239 10.5352007 0.85545924 6.531947 2 1 C1.01 0.505 1.01 0.505 0 0 Z " fill="#847E6F" transform="translate(506,503)"/>
  <path d="M0 0 C1.95486328 -0.03867187 1.95486328 -0.03867187 3.94921875 -0.078125 C7.3125 0.25 7.3125 0.25 9.28125 1.57421875 C10.3125 3.25 10.3125 3.25 10.125 6.3125 C9.3125 9.25 9.3125 9.25 7.3125 11.25 C4.57444249 11.55422861 1.87191082 11.76312735 -0.875 11.9375 C-10.12712906 12.69868028 -19.08989457 14.42960942 -28.125 16.5 C-29.12107269 16.72810364 -29.12107269 16.72810364 -30.13726807 16.96081543 C-39.60400424 19.14856823 -48.99023844 21.58338583 -58.26928711 24.47167969 C-62.5080113 25.76769728 -66.19850749 26.74877695 -70.6875 26.25 C-72.6875 24.25 -72.6875 24.25 -73.0625 21.3125 C-72.6875 18.25 -72.6875 18.25 -70.94848633 16.65722656 C-68.66664033 15.23701705 -66.70774093 14.43284073 -64.13671875 13.671875 C-63.22519043 13.40133301 -62.31366211 13.13079102 -61.37451172 12.85205078 C-60.38467285 12.57087402 -59.39483398 12.28969727 -58.375 12 C-57.34133301 11.70206543 -56.30766602 11.40413086 -55.24267578 11.09716797 C-16.49590893 0.19696608 -16.49590893 0.19696608 0 0 Z " fill="#696969" transform="translate(837.6875,448.75)"/>
  <path d="M0 0 C1.92484453 0.42774323 3.84963773 0.85585777 5.77148438 1.296875 C7.88853629 1.76688078 10.01083166 2.18555536 12.140625 2.59375 C21.41560513 4.39779881 30.48754505 6.67718894 39.5625 9.3125 C40.5743335 9.60543945 41.58616699 9.89837891 42.62866211 10.20019531 C53.00243149 13.27943347 53.00243149 13.27943347 57.8125 15.75 C58.9375 18.75 58.9375 18.75 58.8125 21.75 C57.58666992 23.44458008 57.58666992 23.44458008 55.8125 24.75 C48.77109244 25.37450238 41.61197155 22.6675863 35 20.5625 C25.64568454 17.71695131 16.25826981 15.37466812 6.6875 13.375 C4.93022583 12.99952026 4.93022583 12.99952026 3.13745117 12.61645508 C-4.0431737 11.15781935 -10.99235693 10.39015917 -18.31982422 10.16943359 C-21.1875 9.75 -21.1875 9.75 -23.05908203 8.40869141 C-24.81987854 5.82045006 -24.57463619 3.78256686 -24.1875 0.75 C-17.51194527 -3.70036982 -7.51349715 -1.49290986 0 0 Z " fill="#696969" transform="translate(199.1875,450.25)"/>
  <path d="M0 0 C1.010625 0.60714844 2.02125 1.21429687 3.0625 1.83984375 C3.64225586 2.18490967 4.22201172 2.52997559 4.81933594 2.88549805 C11.7757197 7.09001302 18.54309294 11.6100188 25.33251953 16.07666016 C31.14137149 19.89476916 36.98516993 23.62479969 42.9375 27.21484375 C53.46048907 33.56909633 63.78323431 40.23162172 74.11572266 46.88964844 C76.8205364 48.62234271 79.53729668 50.33352033 82.26171875 52.03515625 C83.03894287 52.525 83.81616699 53.01484375 84.61694336 53.51953125 C86.02294939 54.40506646 87.43354542 55.28338061 88.84985352 56.15234375 C93.12754093 58.86559127 96.08202458 61.65825974 99.0625 65.77734375 C99.6875 68.77734375 99.6875 68.77734375 99.0625 71.77734375 C95.14562258 77.44733969 90.30900018 80.43485933 84.4375 83.90234375 C82.54114364 85.04861433 80.64532105 86.19576837 78.75 87.34375 C77.79609375 87.91754395 76.8421875 88.49133789 75.859375 89.08251953 C71.68345871 91.61300233 67.55905423 94.22206481 63.4375 96.83984375 C61.8724498 97.8308144 60.30734565 98.82169986 58.7421875 99.8125 C57.97100586 100.30121582 57.19982422 100.78993164 56.40527344 101.29345703 C51.6699507 104.29275795 46.92919201 107.28346224 42.18920898 110.27539062 C38.21606168 112.78380011 34.2448064 115.29510732 30.27734375 117.8125 C22.21977632 122.92107497 14.13961161 127.98777204 6 132.96484375 C4.84745728 133.66975952 4.84745728 133.66975952 3.67163086 134.38891602 C-1.74244297 137.68741415 -5.35776494 139.47846306 -11.9375 138.77734375 C-13.875 137.77734375 -13.875 137.77734375 -14.9375 135.77734375 C-16.00336944 129.26367773 -16.08560471 122.8613237 -16.08276367 116.27172852 C-16.08612228 115.14384918 -16.0894809 114.01596985 -16.09294128 112.85391235 C-16.10240544 109.14218023 -16.10439196 105.43049342 -16.10546875 101.71875 C-16.10868393 99.12857546 -16.1120482 96.53840109 -16.11555481 93.94822693 C-16.12153433 88.52561952 -16.12343883 83.10302997 -16.12280273 77.68041992 C-16.12220193 71.4308504 -16.13276031 65.18136719 -16.1485464 58.9318195 C-16.16324337 52.89621275 -16.1667896 46.86065257 -16.16619301 40.82502556 C-16.16737072 38.26745183 -16.17178077 35.70987741 -16.17952538 33.15231514 C-16.18935338 29.57225552 -16.18643622 25.99241691 -16.18041992 22.41235352 C-16.18603943 21.36324295 -16.19165894 20.31413239 -16.19744873 19.23323059 C-16.13456724 4.46264816 -16.13456724 4.46264816 -12.25 -0.28515625 C-8.0214092 -1.99944982 -4.17733008 -1.73870255 0 0 Z M-11.9375 1.77734375 C-13.64938845 5.20112066 -13.33430573 9.11306942 -13.4921875 12.88671875 C-13.53423309 13.88378845 -13.57627869 14.88085815 -13.61959839 15.90814209 C-14.18023059 31.14298805 -14.08736325 46.3934521 -14.06787109 61.63623047 C-14.06219177 66.11447926 -14.06556217 70.59266847 -14.07129288 75.07091522 C-14.08910261 91.28334126 -14.06872563 107.49357024 -13.5546875 123.69921875 C-13.52432404 124.81371399 -13.49396057 125.92820923 -13.462677 127.07647705 C-13.42455902 128.07701111 -13.38644104 129.07754517 -13.34716797 130.10839844 C-13.31654266 130.96971375 -13.28591736 131.83102905 -13.25436401 132.71844482 C-13.11129544 134.99776261 -13.11129544 134.99776261 -10.9375 136.77734375 C-5.71874177 137.27607264 -2.72883722 136.56481675 1.66015625 133.76953125 C2.697771 133.11952148 3.73538574 132.46951172 4.80444336 131.79980469 C5.90022705 131.09114258 6.99601074 130.38248047 8.125 129.65234375 C9.28240784 128.91951204 10.44070597 128.18808467 11.59985352 127.45800781 C14.5399316 125.60132533 17.46826989 123.72697912 20.39367676 121.84729004 C22.91992341 120.22761687 25.45615243 118.62382101 27.9921875 117.01953125 C31.63667072 114.71111373 35.27595872 112.3948893 38.91015625 110.0703125 C43.7434163 106.97886525 48.58693661 103.90406031 53.4375 100.83984375 C54.1893457 100.36434082 54.94119141 99.88883789 55.71582031 99.39892578 C60.23174467 96.5478103 64.76143662 93.71993904 69.30078125 90.90625 C70.37086426 90.24165771 71.44094727 89.57706543 72.54345703 88.89233398 C74.62446361 87.60085503 76.70736478 86.31242205 78.79248047 85.02758789 C89.01657665 79.11479496 89.01657665 79.11479496 97.0625 70.77734375 C97.64652133 68.36316503 97.64652133 68.36316503 97.0625 65.77734375 C93.72757463 62.0293493 90.17668575 59.36561171 85.9375 56.71484375 C85.34348389 56.34053223 84.74946777 55.9662207 84.13745117 55.58056641 C82.82918715 54.75687551 81.5191235 53.93603784 80.20751953 53.11767578 C77.07383863 51.15957105 73.9530326 49.18124348 70.83056641 47.20532227 C68.48881097 45.72432144 66.14503326 44.24657606 63.80078125 42.76953125 C58.54471258 39.45445444 53.30363329 36.11596433 48.0625 32.77734375 C46.22922684 31.61058253 44.39589379 30.4439154 42.5625 29.27734375 C31.5625 22.27734375 31.5625 22.27734375 28.8190918 20.53149414 C26.96383929 19.35090879 25.1085323 18.17040905 23.25317383 16.98999023 C22.33044678 16.40290283 21.40771973 15.81581543 20.45703125 15.2109375 C19.55033691 14.63456543 18.64364258 14.05819336 17.70947266 13.46435547 C16.00612578 12.3787507 14.30508272 11.28951822 12.60693359 10.19580078 C10.32920737 8.73090461 8.04096095 7.28392812 5.75 5.83984375 C4.99138672 5.34677734 4.23277344 4.85371094 3.45117188 4.34570312 C-2.00503902 0.93379675 -5.58996305 -0.3385019 -11.9375 1.77734375 Z " fill="#C25D37" transform="translate(405.9375,651.22265625)"/>
  <path d="M0 0 C3.26587084 0.24603158 5.61240403 0.93570738 8.65234375 2.1171875 C22.92456232 7.0922653 37.68566901 6.4333041 52.57714844 6.12573242 C55.09699766 6.07767442 57.61658107 6.04771771 60.13671875 6.01953125 C60.90538269 5.99777328 61.67404663 5.97601532 62.46600342 5.95359802 C67.70089456 5.90447974 67.70089456 5.90447974 70.22753906 7.56469727 C71.21484375 9.2421875 71.21484375 9.2421875 71.08984375 12.3046875 C70.21484375 15.2421875 70.21484375 15.2421875 67.21484375 17.2421875 C59.89441125 18.61497459 52.51299113 18.52860198 45.08984375 18.5546875 C44.02487167 18.55861511 44.02487167 18.55861511 42.93838501 18.56262207 C27.71016755 18.56862511 9.9053715 17.79063362 -3.78515625 10.2421875 C-5.78515625 7.2421875 -5.78515625 7.2421875 -5.53515625 4.6796875 C-4.46468123 1.20064367 -3.66354687 0.31856929 0 0 Z " fill="#696868" transform="translate(183.78515625,483.7578125)"/>
  <path d="M0 0 C1.8125 1.1875 1.8125 1.1875 3 3 C3.40099539 5.67330262 3.52841643 7.2362887 1.96484375 9.49609375 C-0.9779571 11.74853575 -4.29858462 12.56882366 -7.8125 13.5625 C-8.49248047 13.77068359 -9.17246094 13.97886719 -9.87304688 14.19335938 C-21.65169264 17.61227475 -33.58748179 18.33262804 -45.77075195 18.26074219 C-47.96007187 18.24988809 -50.14859321 18.26078119 -52.33789062 18.2734375 C-53.75521011 18.2721177 -55.17252911 18.26955902 -56.58984375 18.265625 C-57.84659912 18.26336914 -59.10335449 18.26111328 -60.39819336 18.25878906 C-65.1606713 17.91660601 -69.53583593 17.46416407 -73 14 C-73.3125 11 -73.3125 11 -73 8 C-69.12618249 5.41745499 -65.99793074 5.80095282 -61.51953125 5.91015625 C-59.77930018 5.93062151 -58.03906564 5.95079363 -56.29882812 5.97070312 C-53.57643215 6.01369983 -50.85426442 6.06165931 -48.13208008 6.11645508 C-33.688312 6.38622092 -20.49424419 5.51792791 -6.76171875 0.57421875 C-4.3749531 -0.20372926 -2.47642272 -0.43701577 0 0 Z " fill="#686767" transform="translate(841,484)"/>
  <path d="M0 0 C4.59661001 2.29336241 7.34629482 5.4794498 9.00390625 10.34375 C9.90555196 15.64091854 8.98497653 19.87214458 6.00390625 24.34375 C2.02701182 28.60470832 -0.98078192 30.14911025 -6.82421875 30.47265625 C-10.88240666 30.23179258 -13.58149476 28.75068178 -16.4375 25.91015625 C-20.16494753 21.65173328 -21.41704286 18.21402361 -21.34375 12.5390625 C-20.54523665 7.49676473 -17.47799024 3.66099132 -13.74609375 0.34375 C-9.13828723 -1.33181601 -4.69311907 -1.54294326 0 0 Z " fill="#F9F9F9" transform="translate(389.99609375,335.65625)"/>
  <path d="M0 0 C4.09825266 1.44644212 7.38413663 3.51240458 10.08203125 6.99609375 C12.11650924 11.43731592 11.68891448 16.26858736 11 21 C8.95871232 25.5724844 6.24894511 28.08337768 1.8515625 30.30078125 C-2.08358766 31.78684007 -5.25059606 31.75990744 -9.11328125 30.08203125 C-13.67730869 27.50381465 -16.43954602 25.16900382 -18 20 C-18.64571256 14.98959747 -18.58716608 11.21949878 -16.375 6.625 C-11.44739849 1.1787036 -7.2677629 -1.17973706 0 0 Z " fill="#FAFAFA" transform="translate(641,335)"/>
  <path d="M0 0 C1.8125 1.1875 1.8125 1.1875 3 3 C3.375 5.5 3.375 5.5 3 8 C0.86387702 10.66339121 -1.07780667 11.57764976 -4.32421875 12.5 C-5.6076416 12.86907471 -5.6076416 12.86907471 -6.91699219 13.24560547 C-7.83125977 13.49455566 -8.74552734 13.74350586 -9.6875 14 C-10.63141602 14.26055176 -11.57533203 14.52110352 -12.54785156 14.78955078 C-23.65139155 17.79370652 -34.50691557 20.22453883 -46.0625 20.3125 C-47.09842285 20.32095947 -47.09842285 20.32095947 -48.15527344 20.32958984 C-53.51923403 20.25251394 -59.07125805 19.92874195 -63 16 C-63.35876553 13.20162884 -63.48686775 11.65799261 -61.78027344 9.3515625 C-59.4342409 7.5704824 -58.12370144 7.69324773 -55.203125 7.8125 C-53.77564941 7.85056763 -53.77564941 7.85056763 -52.31933594 7.8894043 C-51.30645508 7.92590088 -50.29357422 7.96239746 -49.25 8 C-39.67114624 8.17653098 -31.2969319 7.46721956 -22 5 C-20.96230469 4.73703125 -19.92460937 4.4740625 -18.85546875 4.203125 C-15.05137469 3.2049959 -11.33562945 2.11809184 -7.625 0.8125 C-4.85762465 -0.04406856 -2.87269656 -0.38820224 0 0 Z " fill="#6A6867" transform="translate(252,516)"/>
  <path d="M0 0 C1.98245847 0.61447871 3.9612788 1.24074809 5.9375 1.875 C19.02406176 5.9450544 30.71239688 7.38250412 44.37060547 6.88964844 C45.79010498 6.85145996 45.79010498 6.85145996 47.23828125 6.8125 C48.08430908 6.77769531 48.93033691 6.74289062 49.80200195 6.70703125 C52 7 52 7 53.81713867 8.28125 C55 10 55 10 54.6875 13.6875 C54.460625 14.780625 54.23375 15.87375 54 17 C33.96689295 22.27931292 11.89185797 17.65042182 -7 10 C-7.99 9.34 -8.98 8.68 -10 8 C-10.39907251 4.87393202 -10.46880951 2.85488793 -8.9375 0.0625 C-5.84821127 -1.63162608 -3.25662295 -0.84096502 0 0 Z " fill="#696767" transform="translate(778,517)"/>
  <path d="M0 0 C1.40739549 -0.0164986 2.81470931 -0.04370846 4.22167969 -0.08203125 C17.41139016 -0.43939176 17.41139016 -0.43939176 21.33129883 2.74853516 C24.19584381 6.28802858 24.56428536 7.90494441 24.59739685 12.37164307 C24.60744247 13.434319 24.6174881 14.49699493 24.62783813 15.59187317 C24.63366913 16.76280014 24.63950012 17.93372711 24.64550781 19.14013672 C24.66018349 20.98417336 24.66018349 20.98417336 24.67515564 22.86546326 C24.70516143 26.94887337 24.72681009 31.03224845 24.74536133 35.11572266 C24.75030731 36.15787634 24.75030731 36.15787634 24.75535321 37.22108364 C24.78613663 43.77394335 24.81284362 50.32680764 24.829772 56.87971878 C24.85167569 65.26027331 24.89363728 73.64018689 24.96320957 82.02048516 C25.01047066 87.91356053 25.03470835 93.80646312 25.04196888 99.69972205 C25.04692253 103.21911278 25.06197311 106.73778131 25.10171318 110.25696564 C25.14549227 114.18566039 25.14167784 118.11353317 25.13378906 122.04248047 C25.15378967 123.20531052 25.17379028 124.36814056 25.19439697 125.56620789 C25.11500823 134.36210908 25.11500823 134.36210908 21.6086731 138.07278442 C17.83292659 140.7836336 15.85798395 141.09891865 11.24536133 141.07666016 C10.24376732 141.07815567 10.24376732 141.07815567 9.22193909 141.0796814 C7.81922415 141.07502731 6.41648822 141.0557305 5.01416016 141.02246094 C2.87550733 140.9751251 0.74182952 140.98136579 -1.3972168 140.99462891 C-12.93873031 140.90062051 -12.93873031 140.90062051 -17.56323242 136.35009766 C-18.82083601 133.83489048 -18.70036029 132.09989153 -18.71713257 129.28385925 C-18.72573303 128.21132401 -18.7343335 127.13878876 -18.74319458 126.03375244 C-18.74745453 124.85190369 -18.75171448 123.67005493 -18.75610352 122.45239258 C-18.76428101 121.21167496 -18.7724585 119.97095734 -18.78088379 118.69264221 C-18.80577059 114.57195358 -18.82241133 110.45130169 -18.83666992 106.33056641 C-18.84202953 104.91229051 -18.84740703 103.49401467 -18.85280228 102.07573891 C-18.87443104 96.17633921 -18.89316796 90.27694225 -18.90442467 84.37751293 C-18.92066553 75.92147124 -18.95384591 67.46588893 -19.01082551 59.01002043 C-19.04951972 53.06515277 -19.06905669 47.12040801 -19.07434523 41.17541772 C-19.07799946 37.62430159 -19.09002687 34.0736754 -19.12244797 30.52269554 C-19.15810655 26.56032182 -19.15415899 22.59852511 -19.14672852 18.63598633 C-19.16313385 17.46021027 -19.17953918 16.2844342 -19.19644165 15.07302856 C-19.12833949 6.22308667 -19.12833949 6.22308667 -16.08926392 3.14472961 C-15.25567352 2.55250107 -14.42208313 1.96027252 -13.56323242 1.35009766 C-10.94403808 -1.26909669 -3.74198861 0.03212753 0 0 Z M-16.56323242 7.35009766 C-17.32030814 11.36201142 -17.24597481 15.33216088 -17.21020508 19.40478516 C-17.21896667 20.62643372 -17.22772827 21.84808228 -17.23675537 23.10675049 C-17.25497447 26.45020446 -17.25073038 29.79210851 -17.23485994 33.13547516 C-17.22218031 36.63786365 -17.23394675 40.14018697 -17.24179077 43.64257812 C-17.25088142 49.5237209 -17.23891513 55.40454949 -17.21508789 61.28564453 C-17.18787726 68.08019883 -17.19669187 74.87400293 -17.22421992 81.66853905 C-17.24692701 87.50737608 -17.2501034 93.34598758 -17.23702657 99.18485451 C-17.22924066 102.66989052 -17.2281662 106.15457418 -17.24470901 109.6395874 C-17.26186563 113.52515713 -17.23807182 117.40988999 -17.21020508 121.29541016 C-17.22032623 122.44777161 -17.23044739 123.60013306 -17.24087524 124.78741455 C-17.19611757 131.11883902 -17.19611757 131.11883902 -14.20822144 136.5660553 C-10.99602582 138.73267792 -9.19813594 138.95700673 -5.34448242 138.90869141 C-4.16499023 138.90160156 -2.98549805 138.89451172 -1.77026367 138.88720703 C-0.54694336 138.85433594 0.67637695 138.82146484 1.93676758 138.78759766 C3.16008789 138.78179688 4.3834082 138.77599609 5.64379883 138.77001953 C13.29391037 138.77867852 13.29391037 138.77867852 20.43676758 136.35009766 C22.63509922 133.05260019 22.69025422 132.06388931 22.70419312 128.23280334 C22.71272308 127.17427658 22.72125305 126.11574982 22.7300415 125.02514648 C22.72868195 123.28346191 22.72868195 123.28346191 22.72729492 121.5065918 C22.73401215 120.283629 22.74072937 119.0606662 22.74765015 117.80064392 C22.76340988 114.44521228 22.77000611 111.09002811 22.77128172 107.73457646 C22.77318065 104.93382706 22.78053802 102.13310142 22.78762591 99.33236116 C22.80391283 92.72506121 22.80879455 86.11781576 22.80737305 79.51049805 C22.80617115 72.69336807 22.82728148 65.87655447 22.85886037 59.05950457 C22.88500479 53.20718554 22.89574114 47.35496997 22.89446223 41.50259298 C22.89395209 38.00695167 22.89966325 34.51159155 22.92081833 31.01600838 C22.94376359 27.11821225 22.934691 23.22085078 22.92260742 19.32299805 C22.93946594 17.58434982 22.93946594 17.58434982 22.95666504 15.81057739 C22.94827606 14.7492308 22.93988708 13.68788422 22.9312439 12.59437561 C22.9328782 11.21200006 22.9328782 11.21200006 22.93454552 9.80169773 C22.27827981 6.56953148 20.97487889 5.39171606 18.43676758 3.35009766 C13.16551322 1.59301287 7.57945722 2.03818974 2.06176758 1.97509766 C0.82942383 1.93771484 -0.40291992 1.90033203 -1.67260742 1.86181641 C-2.86112305 1.85021484 -4.04963867 1.83861328 -5.27416992 1.82666016 C-6.90298096 1.79693115 -6.90298096 1.79693115 -8.56469727 1.76660156 C-12.82769313 2.59615376 -13.98820186 3.82963573 -16.56323242 7.35009766 Z " fill="#C35C34" transform="translate(618.563232421875,649.64990234375)"/>
  <path d="M0 0 C1.40739549 -0.0164986 2.81470931 -0.04370846 4.22167969 -0.08203125 C17.41139016 -0.43939176 17.41139016 -0.43939176 21.33129883 2.74853516 C24.19584381 6.28802858 24.56428536 7.90494441 24.59739685 12.37164307 C24.60744247 13.434319 24.6174881 14.49699493 24.62783813 15.59187317 C24.63366913 16.76280014 24.63950012 17.93372711 24.64550781 19.14013672 C24.66018349 20.98417336 24.66018349 20.98417336 24.67515564 22.86546326 C24.70516143 26.94887337 24.72681009 31.03224845 24.74536133 35.11572266 C24.75030731 36.15787634 24.75030731 36.15787634 24.75535321 37.22108364 C24.78613663 43.77394335 24.81284362 50.32680764 24.829772 56.87971878 C24.85167569 65.26027331 24.89363728 73.64018689 24.96320957 82.02048516 C25.01047066 87.91356053 25.03470835 93.80646312 25.04196888 99.69972205 C25.04692253 103.21911278 25.06197311 106.73778131 25.10171318 110.25696564 C25.14549227 114.18566039 25.14167784 118.11353317 25.13378906 122.04248047 C25.15378967 123.20531052 25.17379028 124.36814056 25.19439697 125.56620789 C25.11500823 134.36210908 25.11500823 134.36210908 21.6086731 138.07278442 C17.83292659 140.7836336 15.85798395 141.09891865 11.24536133 141.07666016 C10.24376732 141.07815567 10.24376732 141.07815567 9.22193909 141.0796814 C7.81922415 141.07502731 6.41648822 141.0557305 5.01416016 141.02246094 C2.87550733 140.9751251 0.74182952 140.98136579 -1.3972168 140.99462891 C-12.93873031 140.90062051 -12.93873031 140.90062051 -17.56323242 136.35009766 C-18.82083601 133.83489048 -18.70036029 132.09989153 -18.71713257 129.28385925 C-18.72573303 128.21132401 -18.7343335 127.13878876 -18.74319458 126.03375244 C-18.74745453 124.85190369 -18.75171448 123.67005493 -18.75610352 122.45239258 C-18.76428101 121.21167496 -18.7724585 119.97095734 -18.78088379 118.69264221 C-18.80577059 114.57195358 -18.82241133 110.45130169 -18.83666992 106.33056641 C-18.84202953 104.91229051 -18.84740703 103.49401467 -18.85280228 102.07573891 C-18.87443104 96.17633921 -18.89316796 90.27694225 -18.90442467 84.37751293 C-18.92066553 75.92147124 -18.95384591 67.46588893 -19.01082551 59.01002043 C-19.04951972 53.06515277 -19.06905669 47.12040801 -19.07434523 41.17541772 C-19.07799946 37.62430159 -19.09002687 34.0736754 -19.12244797 30.52269554 C-19.15810655 26.56032182 -19.15415899 22.59852511 -19.14672852 18.63598633 C-19.16313385 17.46021027 -19.17953918 16.2844342 -19.19644165 15.07302856 C-19.12833949 6.22308667 -19.12833949 6.22308667 -16.08926392 3.14472961 C-15.25567352 2.55250107 -14.42208313 1.96027252 -13.56323242 1.35009766 C-10.94403808 -1.26909669 -3.74198861 0.03212753 0 0 Z M-16.56323242 7.35009766 C-17.32030814 11.36201142 -17.24597481 15.33216088 -17.21020508 19.40478516 C-17.21896667 20.62643372 -17.22772827 21.84808228 -17.23675537 23.10675049 C-17.25497447 26.45020446 -17.25073038 29.79210851 -17.23485994 33.13547516 C-17.22218031 36.63786365 -17.23394675 40.14018697 -17.24179077 43.64257812 C-17.25088142 49.5237209 -17.23891513 55.40454949 -17.21508789 61.28564453 C-17.18787726 68.08019883 -17.19669187 74.87400293 -17.22421992 81.66853905 C-17.24692701 87.50737608 -17.2501034 93.34598758 -17.23702657 99.18485451 C-17.22924066 102.66989052 -17.2281662 106.15457418 -17.24470901 109.6395874 C-17.26186563 113.52515713 -17.23807182 117.40988999 -17.21020508 121.29541016 C-17.22032623 122.44777161 -17.23044739 123.60013306 -17.24087524 124.78741455 C-17.19611757 131.11883902 -17.19611757 131.11883902 -14.20822144 136.5660553 C-10.99602582 138.73267792 -9.19813594 138.95700673 -5.34448242 138.90869141 C-4.16499023 138.90160156 -2.98549805 138.89451172 -1.77026367 138.88720703 C-0.54694336 138.85433594 0.67637695 138.82146484 1.93676758 138.78759766 C3.16008789 138.78179688 4.3834082 138.77599609 5.64379883 138.77001953 C13.29391037 138.77867852 13.29391037 138.77867852 20.43676758 136.35009766 C22.63509922 133.05260019 22.69025422 132.06388931 22.70419312 128.23280334 C22.71272308 127.17427658 22.72125305 126.11574982 22.7300415 125.02514648 C22.72868195 123.28346191 22.72868195 123.28346191 22.72729492 121.5065918 C22.73401215 120.283629 22.74072937 119.0606662 22.74765015 117.80064392 C22.76340988 114.44521228 22.77000611 111.09002811 22.77128172 107.73457646 C22.77318065 104.93382706 22.78053802 102.13310142 22.78762591 99.33236116 C22.80391283 92.72506121 22.80879455 86.11781576 22.80737305 79.51049805 C22.80617115 72.69336807 22.82728148 65.87655447 22.85886037 59.05950457 C22.88500479 53.20718554 22.89574114 47.35496997 22.89446223 41.50259298 C22.89395209 38.00695167 22.89966325 34.51159155 22.92081833 31.01600838 C22.94376359 27.11821225 22.934691 23.22085078 22.92260742 19.32299805 C22.93946594 17.58434982 22.93946594 17.58434982 22.95666504 15.81057739 C22.94827606 14.7492308 22.93988708 13.68788422 22.9312439 12.59437561 C22.9328782 11.21200006 22.9328782 11.21200006 22.93454552 9.80169773 C22.27827981 6.56953148 20.97487889 5.39171606 18.43676758 3.35009766 C13.16551322 1.59301287 7.57945722 2.03818974 2.06176758 1.97509766 C0.82942383 1.93771484 -0.40291992 1.90033203 -1.67260742 1.86181641 C-2.86112305 1.85021484 -4.04963867 1.83861328 -5.27416992 1.82666016 C-6.90298096 1.79693115 -6.90298096 1.79693115 -8.56469727 1.76660156 C-12.82769313 2.59615376 -13.98820186 3.82963573 -16.56323242 7.35009766 Z " fill="#C05E39" transform="translate(554.563232421875,649.64990234375)"/>
  <path d="M0 0 C0.33 0 0.66 0 1 0 C1.11681587 16.47233027 1.20497935 32.94452612 1.25906086 49.41717052 C1.28483964 57.06577083 1.31998351 64.71411374 1.37719727 72.36254883 C1.42704274 79.02915837 1.4592934 85.6955815 1.47044247 92.36237222 C1.47695948 95.89230541 1.49226815 99.4217053 1.52865028 102.95146751 C1.56894146 106.89246978 1.56994867 110.83295093 1.56762695 114.77416992 C1.58560333 115.94373734 1.60357971 117.11330475 1.62210083 118.3183136 C1.57167907 126.20782327 1.57167907 126.20782327 -1.32710266 130.22467041 C-4.77214862 132.51285857 -6.97317783 132.63131438 -11.09375 132.62890625 C-11.76289429 132.63131821 -12.43203857 132.63373016 -13.12145996 132.63621521 C-14.53008985 132.63523979 -15.93875951 132.62191848 -17.34716797 132.59692383 C-19.49449807 132.56258798 -21.63771249 132.57627926 -23.78515625 132.59570312 C-25.15887155 132.58880411 -26.53257631 132.57913119 -27.90625 132.56640625 C-29.76733398 132.55009155 -29.76733398 132.55009155 -31.66601562 132.53344727 C-35.62220052 131.90044609 -37.28241666 130.92014975 -40 128 C-40.93412756 124.55230065 -41.1152789 121.32620081 -41.08229065 117.76713562 C-41.07525116 116.7337355 -41.06821167 115.70033539 -41.06095886 114.63562012 C-41.04801285 113.5128064 -41.03506683 112.38999268 -41.02172852 111.2331543 C-41.01212097 110.04248856 -41.00251343 108.85182281 -40.99261475 107.62507629 C-40.96532744 104.36922831 -40.93342771 101.11346498 -40.89946485 97.85768104 C-40.86503059 94.45176896 -40.83651005 91.04580745 -40.80735779 87.6398468 C-40.75129247 81.1942642 -40.68992143 74.74874352 -40.62663645 68.3032282 C-40.55483066 60.96350585 -40.48895143 53.62373403 -40.42356598 46.28395212 C-40.2889642 31.18923716 -40.14693288 16.09460034 -40 1 C-39.67 1 -39.34 1 -39 1 C-38.99853344 1.63537563 -38.99706688 2.27075127 -38.99555588 2.92538071 C-38.95851153 18.38224683 -38.89952869 33.83884972 -38.81609726 49.29552841 C-38.77628004 56.77026482 -38.74390127 64.24489553 -38.72900391 71.71972656 C-38.71600118 78.2344586 -38.68907219 84.74895835 -38.64538693 91.26355958 C-38.62274061 94.71337013 -38.60709118 98.16289386 -38.60811615 101.61278534 C-38.60899925 105.46312558 -38.57879209 109.31287864 -38.54589844 113.16308594 C-38.5509288 114.30819641 -38.55595917 115.45330688 -38.56114197 116.63311768 C-38.54722916 117.68197144 -38.53331635 118.7308252 -38.51898193 119.8114624 C-38.51345118 121.1775596 -38.51345118 121.1775596 -38.50780869 122.57125473 C-37.83724124 125.77844192 -36.5340814 126.98646272 -34 129 C-31.0911923 129.56501152 -31.0911923 129.56501152 -27.87890625 129.42578125 C-26.69619141 129.41740234 -25.51347656 129.40902344 -24.29492188 129.40039062 C-23.06322266 129.37138672 -21.83152344 129.34238281 -20.5625 129.3125 C-18.72075195 129.29799805 -18.72075195 129.29799805 -16.84179688 129.28320312 C-11.76190636 129.21960079 -6.96693854 129.14241311 -2 128 C-1.00430591 125.01291772 -0.86369138 123.01432904 -0.84178162 119.89375305 C-0.82709839 118.30991318 -0.82709839 118.30991318 -0.81211853 116.69407654 C-0.80636307 115.53602005 -0.8006076 114.37796356 -0.79467773 113.18481445 C-0.78477814 111.96518005 -0.77487854 110.74554565 -0.76467896 109.48895264 C-0.73848479 106.14420085 -0.71662539 102.79947301 -0.69667697 99.45468163 C-0.6748107 95.95927883 -0.64742515 92.46391943 -0.62062073 88.96855164 C-0.57070251 82.349431 -0.52576045 75.73028626 -0.48259836 69.1111185 C-0.43321855 61.5754926 -0.37830318 54.03991025 -0.32291877 46.50432646 C-0.2091121 31.00292454 -0.10227019 15.50148258 0 0 Z " fill="#C8582C" transform="translate(577,658)"/>
  <path d="M0 0 C0.33 0 0.66 0 1 0 C1.09338389 16.50689339 1.16394987 33.01370128 1.20724869 49.52079487 C1.22788623 57.18509557 1.25602932 64.84923228 1.30175781 72.51342773 C1.34158943 79.19246932 1.36742415 85.87139216 1.37635398 92.55054921 C1.38157506 96.08815818 1.39387048 99.6254274 1.42292023 103.16292763 C1.45506393 107.10909077 1.45596177 111.05491958 1.45410156 115.0012207 C1.46848267 116.17797867 1.48286377 117.35473663 1.49768066 118.56715393 C1.49218201 119.63987549 1.48668335 120.71259705 1.48101807 121.81782532 C1.48470524 122.75160161 1.48839241 123.6853779 1.49219131 124.64745045 C1 127 1 127 -1.03006363 128.82388592 C-2.00518213 129.40606239 -2.00518213 129.40606239 -3 130 C-3.33 129.34 -3.66 128.68 -4 128 C-3.34 128 -2.68 128 -2 128 C-1.00430591 125.01291772 -0.86369138 123.01432904 -0.84178162 119.89375305 C-0.8319928 118.8378598 -0.82220398 117.78196655 -0.81211853 116.69407654 C-0.80636307 115.53602005 -0.8006076 114.37796356 -0.79467773 113.18481445 C-0.78477814 111.96518005 -0.77487854 110.74554565 -0.76467896 109.48895264 C-0.73848479 106.14420085 -0.71662539 102.79947301 -0.69667697 99.45468163 C-0.6748107 95.95927883 -0.64742515 92.46391943 -0.62062073 88.96855164 C-0.57070251 82.349431 -0.52576045 75.73028626 -0.48259836 69.1111185 C-0.43321855 61.5754926 -0.37830318 54.03991025 -0.32291877 46.50432646 C-0.2091121 31.00292454 -0.10227019 15.50148258 0 0 Z " fill="#BC542D" transform="translate(641,658)"/>
  <path d="M0 0 C0.33 0 0.66 0 1 0 C1.09338389 16.50689339 1.16394987 33.01370128 1.20724869 49.52079487 C1.22788623 57.18509557 1.25602932 64.84923228 1.30175781 72.51342773 C1.34158943 79.19246932 1.36742415 85.87139216 1.37635398 92.55054921 C1.38157506 96.08815818 1.39387048 99.6254274 1.42292023 103.16292763 C1.45506393 107.10909077 1.45596177 111.05491958 1.45410156 115.0012207 C1.46848267 116.17797867 1.48286377 117.35473663 1.49768066 118.56715393 C1.49218201 119.63987549 1.48668335 120.71259705 1.48101807 121.81782532 C1.48470524 122.75160161 1.48839241 123.6853779 1.49219131 124.64745045 C1 127 1 127 -1.03006363 128.82388592 C-2.00518213 129.40606239 -2.00518213 129.40606239 -3 130 C-3.33 129.34 -3.66 128.68 -4 128 C-3.34 128 -2.68 128 -2 128 C-1.00430591 125.01291772 -0.86369138 123.01432904 -0.84178162 119.89375305 C-0.8319928 118.8378598 -0.82220398 117.78196655 -0.81211853 116.69407654 C-0.80636307 115.53602005 -0.8006076 114.37796356 -0.79467773 113.18481445 C-0.78477814 111.96518005 -0.77487854 110.74554565 -0.76467896 109.48895264 C-0.73848479 106.14420085 -0.71662539 102.79947301 -0.69667697 99.45468163 C-0.6748107 95.95927883 -0.64742515 92.46391943 -0.62062073 88.96855164 C-0.57070251 82.349431 -0.52576045 75.73028626 -0.48259836 69.1111185 C-0.43321855 61.5754926 -0.37830318 54.03991025 -0.32291877 46.50432646 C-0.2091121 31.00292454 -0.10227019 15.50148258 0 0 Z " fill="#BC542D" transform="translate(577,658)"/>
  <path d="M0 0 C0.66 0 1.32 0 2 0 C2.14420386 12.36948647 1.71511973 24.65141462 1 37 C0.01 37.495 0.01 37.495 -1 38 C-1.02464928 32.74894558 -1.04283568 27.49792455 -1.05493164 22.24682617 C-1.05997218 20.45905979 -1.06680454 18.67129755 -1.07543945 16.88354492 C-1.0875173 14.31948832 -1.09323094 11.75548603 -1.09765625 9.19140625 C-1.10281754 8.3872377 -1.10797882 7.58306915 -1.11329651 6.75453186 C-1.11349215 4.83598285 -1.06201983 2.91754632 -1 1 C-0.67 0.67 -0.34 0.34 0 0 Z " fill="#C66641" transform="translate(391,661)"/>
  <path d="M0 0 C2.08153061 -0.01186678 4.16006456 -0.06102303 6.2409668 -0.11157227 C17.39242784 -0.24427369 17.39242784 -0.24427369 21.23510742 2.95288086 C21.91186523 3.76885742 22.58862305 4.58483398 23.28588867 5.42553711 C22.95588867 6.41553711 22.62588867 7.40553711 22.28588867 8.42553711 C21.68776367 7.78616211 21.08963867 7.14678711 20.47338867 6.48803711 C15.51944167 1.81717279 8.30493487 3.24136042 1.91088867 3.23803711 C0.67854492 3.22579102 -0.55379883 3.21354492 -1.82348633 3.20092773 C-3.01200195 3.19899414 -4.20051758 3.19706055 -5.42504883 3.19506836 C-6.51092285 3.19095947 -7.59679687 3.18685059 -8.71557617 3.18261719 C-11.76548326 3.4296989 -13.95707972 4.13583414 -16.71411133 5.42553711 C-14.29912173 -1.81943169 -6.36940109 0.01720045 0 0 Z " fill="#C15B34" transform="translate(618.714111328125,649.574462890625)"/>
  <path d="M0 0 C2.08153061 -0.01186678 4.16006456 -0.06102303 6.2409668 -0.11157227 C17.39242784 -0.24427369 17.39242784 -0.24427369 21.23510742 2.95288086 C21.91186523 3.76885742 22.58862305 4.58483398 23.28588867 5.42553711 C22.95588867 6.41553711 22.62588867 7.40553711 22.28588867 8.42553711 C21.68776367 7.78616211 21.08963867 7.14678711 20.47338867 6.48803711 C15.51944167 1.81717279 8.30493487 3.24136042 1.91088867 3.23803711 C0.67854492 3.22579102 -0.55379883 3.21354492 -1.82348633 3.20092773 C-3.01200195 3.19899414 -4.20051758 3.19706055 -5.42504883 3.19506836 C-6.51092285 3.19095947 -7.59679687 3.18685059 -8.71557617 3.18261719 C-11.76548326 3.4296989 -13.95707972 4.13583414 -16.71411133 5.42553711 C-14.29912173 -1.81943169 -6.36940109 0.01720045 0 0 Z " fill="#C15B34" transform="translate(554.714111328125,649.574462890625)"/>
  <path d="M0 0 C0.66 0 1.32 0 2 0 C3.01866229 1.65532623 4.01810813 3.32260138 5 5 C7.97359449 6.48679725 10.66299179 6.11112605 13.9765625 6.09765625 C14.66181 6.0962413 15.3470575 6.09482635 16.05307007 6.09336853 C18.24375761 6.08776675 20.4343433 6.07521406 22.625 6.0625 C24.10937352 6.05748522 25.59374865 6.05292228 27.078125 6.04882812 C30.71878315 6.03779677 34.35938164 6.02053099 38 6 C37.67 6.99 37.34 7.98 37 9 C32.67673967 9.0992011 28.35408976 9.17162265 24.0300293 9.21972656 C22.56051079 9.23978825 21.09107159 9.26704478 19.62182617 9.30175781 C17.50419513 9.35052141 15.38762313 9.37302161 13.26953125 9.390625 C11.99698486 9.41157227 10.72443848 9.43251953 9.41333008 9.45410156 C5.41234742 8.92182006 3.79403145 7.86203571 1 5 C0.1875 2.25 0.1875 2.25 0 0 Z " fill="#C15B35" transform="translate(600,781)"/>
  <path d="M0 0 C0.66 0 1.32 0 2 0 C3.01866229 1.65532623 4.01810813 3.32260138 5 5 C7.97359449 6.48679725 10.66299179 6.11112605 13.9765625 6.09765625 C14.66181 6.0962413 15.3470575 6.09482635 16.05307007 6.09336853 C18.24375761 6.08776675 20.4343433 6.07521406 22.625 6.0625 C24.10937352 6.05748522 25.59374865 6.05292228 27.078125 6.04882812 C30.71878315 6.03779677 34.35938164 6.02053099 38 6 C37.67 6.99 37.34 7.98 37 9 C32.67673967 9.0992011 28.35408976 9.17162265 24.0300293 9.21972656 C22.56051079 9.23978825 21.09107159 9.26704478 19.62182617 9.30175781 C17.50419513 9.35052141 15.38762313 9.37302161 13.26953125 9.390625 C11.99698486 9.41157227 10.72443848 9.43251953 9.41333008 9.45410156 C5.41234742 8.92182006 3.79403145 7.86203571 1 5 C0.1875 2.25 0.1875 2.25 0 0 Z " fill="#C15B35" transform="translate(536,781)"/>
  <path d="M0 0 C0.66 0.33 1.32 0.66 2 1 C-5.26 8.26 -12.52 15.52 -20 23 C-20 19.44367951 -19.50125436 19.09404113 -17.1484375 16.6015625 C-16.54386719 15.95703125 -15.93929687 15.3125 -15.31640625 14.6484375 C-14.67574219 13.98070312 -14.03507813 13.31296875 -13.375 12.625 C-12.75753906 11.965 -12.14007812 11.305 -11.50390625 10.625 C-7.86902956 6.78350926 -4.13574584 3.2958713 0 0 Z " fill="#AC5135" transform="translate(758,29)"/>
  <path d="M0 0 C0.66 0.33 1.32 0.66 2 1 C-2.95 5.95 -7.9 10.9 -13 16 C-13 11.93645091 -11.47015238 10.94829419 -8.75 8 C-7.96109375 7.13375 -7.1721875 6.2675 -6.359375 5.375 C-4.3351828 3.33740256 -2.34982916 1.63841299 0 0 Z " fill="#B85336" transform="translate(229,25)"/>
  <path d="M0 0 C0.99 0.33 1.98 0.66 3 1 C3.49882898 5.1901634 3.19920015 6.71226646 0.75 10.25 C-1.53740361 12.53740361 -3.02072759 13.89656577 -6 15 C-6 14.01 -6 13.02 -6 12 C-5.195625 11.4225 -4.39125 10.845 -3.5625 10.25 C-0.64939645 8.13980976 -0.64939645 8.13980976 -0.1875 4.3125 C-0.05309268 2.15739976 -0.05309268 2.15739976 0 0 Z " fill="#C4633F" transform="translate(502,716)"/>
  <path d="M0 0 C0.33 0.66 0.66 1.32 1 2 C4.17890804 4.00153469 7.31253672 4.4971641 11 5 C11 5.33 11 5.66 11 6 C3.5577342 6.36601307 3.5577342 6.36601307 1 4.6875 C0 3 0 3 0 0 Z " fill="#CA7254" transform="translate(391,784)"/>
  <path d="M0 0 C-2.97 1.65 -5.94 3.3 -9 5 C-9 4.01 -9 3.02 -9 2 C-5.3823098 -0.81375904 -4.61553765 -1.15388441 0 0 Z " fill="#C4633E" transform="translate(478,743)"/>
</svg>
