<?xml version="1.0"?>
<svg xmlns="http://www.w3.org/2000/svg" xmlns:xlink="http://www.w3.org/1999/xlink" id="svg" version="1.1" width="400" height="400" viewBox="0, 0, 400,400">
  <g id="svgg">
    <path id="path0" d="M105.483 84.188 C 104.869 84.508,103.700 84.895,102.886 85.048 C 101.179 85.368,97.903 87.058,94.660 89.290 C 93.701 89.950,89.950 93.701,89.290 94.660 C 87.143 97.780,85.346 101.298,85.024 103.014 C 84.884 103.758,84.508 104.869,84.188 105.483 C 82.475 108.766,83.634 118.785,86.363 124.294 C 88.616 128.842,88.581 128.793,91.894 132.106 C 94.656 134.868,95.175 135.307,96.382 135.900 C 96.942 136.176,98.210 136.869,99.200 137.442 C 100.190 138.015,101.630 138.656,102.400 138.867 C 103.170 139.078,104.430 139.555,105.200 139.926 C 107.392 140.981,182.381 140.960,184.200 139.903 C 184.860 139.519,185.850 139.015,186.400 138.782 C 190.897 136.878,203.098 127.283,207.957 121.829 C 208.531 121.185,209.657 119.988,210.460 119.169 C 211.263 118.350,212.867 116.447,214.023 114.940 C 215.180 113.433,216.413 111.894,216.763 111.519 C 217.885 110.320,218.590 109.447,219.000 108.748 C 219.220 108.373,221.053 105.621,223.074 102.631 C 225.094 99.642,226.861 96.837,227.001 96.398 C 227.140 95.959,227.410 95.600,227.600 95.600 C 227.790 95.600,228.070 95.195,228.221 94.700 C 228.372 94.205,228.850 93.009,229.284 92.041 L 230.074 90.282 229.149 87.955 C 228.454 86.205,227.841 85.376,226.676 84.614 L 225.128 83.600 165.864 83.602 C 114.754 83.605,106.446 83.685,105.483 84.188 M281.200 84.169 C 280.650 84.464,279.596 84.835,278.859 84.993 C 277.700 85.242,275.414 86.313,271.746 88.324 C 267.914 90.425,263.268 96.649,260.193 103.800 C 259.039 106.486,258.790 107.026,258.446 107.600 C 258.248 107.930,257.888 108.650,257.646 109.200 C 257.404 109.750,257.044 110.470,256.846 110.800 C 256.648 111.130,256.283 111.850,256.035 112.400 C 255.787 112.950,255.150 114.120,254.620 115.000 C 254.089 115.880,253.368 117.140,253.017 117.800 C 251.935 119.834,251.354 120.766,250.712 121.497 C 250.372 121.884,249.971 122.605,249.820 123.100 C 249.670 123.595,249.400 124.000,249.222 124.000 C 249.043 124.000,248.673 124.540,248.400 125.200 C 248.127 125.860,247.740 126.400,247.542 126.400 C 247.343 126.400,247.000 126.805,246.780 127.300 C 246.167 128.677,243.796 131.812,241.000 134.941 C 240.560 135.433,239.321 136.925,238.246 138.256 C 235.795 141.291,229.029 147.998,225.600 150.792 C 224.170 151.957,222.856 153.155,222.680 153.455 C 222.504 153.755,222.198 154.000,222.001 154.000 C 221.803 154.000,221.137 154.472,220.521 155.050 C 219.544 155.965,217.791 157.242,215.649 158.600 C 215.302 158.820,214.834 159.192,214.609 159.426 C 214.067 159.990,208.610 163.600,208.299 163.600 C 208.166 163.600,206.973 164.320,205.648 165.200 C 204.323 166.080,202.982 166.800,202.668 166.800 C 202.355 166.800,201.882 167.061,201.617 167.380 C 201.352 167.698,200.520 168.162,199.768 168.411 C 199.016 168.659,198.400 169.014,198.400 169.199 C 198.400 169.385,197.815 169.664,197.100 169.820 C 196.385 169.976,195.371 170.441,194.846 170.852 C 194.321 171.263,193.578 171.600,193.195 171.600 C 192.812 171.600,192.283 171.858,192.021 172.174 C 191.759 172.490,190.972 172.870,190.272 173.017 C 189.573 173.165,188.439 173.627,187.753 174.043 C 187.067 174.459,186.234 174.800,185.902 174.800 C 185.570 174.800,185.083 175.058,184.821 175.374 C 184.559 175.690,183.772 176.073,183.072 176.224 C 181.961 176.465,179.942 177.364,178.000 178.482 C 177.670 178.672,176.725 179.118,175.900 179.474 C 175.075 179.830,174.400 180.266,174.400 180.443 C 174.400 180.619,173.776 180.881,173.014 181.024 C 172.252 181.167,171.411 181.545,171.146 181.865 C 170.881 182.185,170.109 182.704,169.432 183.019 C 167.545 183.897,163.921 186.004,162.850 186.846 C 162.323 187.261,161.754 187.600,161.585 187.600 C 161.416 187.600,159.351 188.905,156.997 190.500 C 154.643 192.095,152.305 193.670,151.802 194.000 C 149.140 195.747,143.444 200.099,142.232 201.311 C 141.853 201.690,141.421 202.004,141.271 202.009 C 141.122 202.014,140.155 202.790,139.122 203.734 C 138.089 204.677,136.499 206.068,135.588 206.825 C 132.970 208.998,120.786 221.186,118.812 223.607 C 117.828 224.813,116.343 226.518,115.512 227.396 C 114.680 228.274,114.000 229.102,114.000 229.237 C 114.000 229.454,113.557 230.006,111.459 232.400 C 110.757 233.202,106.313 239.224,105.803 240.065 C 105.581 240.431,104.455 242.111,103.300 243.799 C 102.145 245.486,101.200 247.010,101.200 247.185 C 101.200 247.359,100.920 247.735,100.577 248.019 C 100.234 248.304,99.695 249.091,99.378 249.768 C 99.061 250.446,98.441 251.540,98.000 252.200 C 97.559 252.860,96.915 254.011,96.569 254.758 C 96.224 255.505,95.684 256.373,95.370 256.687 C 95.057 257.001,94.800 257.490,94.800 257.775 C 94.800 258.059,94.465 258.721,94.055 259.246 C 93.645 259.771,93.174 260.650,93.008 261.200 C 92.841 261.750,92.478 262.470,92.200 262.800 C 91.922 263.130,91.562 263.850,91.400 264.400 C 91.238 264.950,90.878 265.670,90.600 266.000 C 90.322 266.330,89.962 267.050,89.800 267.600 C 89.638 268.150,89.277 268.870,88.997 269.200 C 88.718 269.530,88.367 270.373,88.219 271.072 C 88.070 271.772,87.690 272.559,87.374 272.821 C 87.058 273.083,86.800 273.571,86.800 273.905 C 86.800 274.239,86.455 275.252,86.033 276.156 C 84.184 280.117,83.858 281.707,83.707 287.517 C 83.589 292.066,83.683 293.484,84.169 294.457 C 84.504 295.130,84.893 296.288,85.032 297.031 C 85.261 298.253,85.694 299.168,88.154 303.632 C 88.569 304.384,89.154 305.144,89.454 305.320 C 89.754 305.496,90.000 305.797,90.000 305.988 C 90.000 306.443,93.557 310.000,94.012 310.000 C 94.203 310.000,94.504 310.246,94.680 310.546 C 94.856 310.846,95.616 311.431,96.368 311.846 C 100.851 314.316,101.759 314.741,103.095 314.992 C 103.908 315.144,105.065 315.523,105.666 315.834 C 107.201 316.628,116.799 316.628,118.334 315.834 C 118.935 315.523,120.141 315.136,121.014 314.973 C 121.886 314.810,123.590 314.136,124.800 313.473 C 126.010 312.811,127.504 312.011,128.120 311.695 C 131.977 309.719,136.670 303.496,139.807 296.200 C 140.961 293.514,141.210 292.974,141.554 292.400 C 141.752 292.070,142.112 291.350,142.354 290.800 C 142.596 290.250,142.956 289.530,143.154 289.200 C 143.352 288.870,143.717 288.150,143.965 287.600 C 144.213 287.050,144.850 285.880,145.380 285.000 C 145.911 284.120,146.634 282.860,146.987 282.200 C 147.340 281.540,147.920 280.460,148.275 279.800 C 148.630 279.140,149.164 278.456,149.460 278.280 C 149.757 278.104,150.000 277.754,150.000 277.502 C 150.000 277.021,151.954 273.978,152.535 273.554 C 152.721 273.419,153.081 272.949,153.336 272.511 C 154.288 270.877,155.951 268.556,157.144 267.200 C 158.925 265.175,159.058 265.017,161.286 262.285 C 164.278 258.618,169.317 253.540,173.400 250.077 C 175.380 248.398,177.144 246.794,177.320 246.512 C 177.496 246.231,177.901 246.000,178.220 246.000 C 178.539 246.000,178.800 245.853,178.800 245.672 C 178.800 245.262,184.211 241.200,184.758 241.200 C 184.979 241.200,185.304 240.974,185.480 240.699 C 185.911 240.024,188.927 238.000,189.502 238.000 C 189.754 238.000,190.104 237.765,190.280 237.477 C 190.456 237.190,192.130 236.102,194.000 235.059 C 195.870 234.017,197.670 232.991,198.000 232.779 C 198.330 232.567,199.050 232.196,199.600 231.954 C 200.150 231.712,200.870 231.360,201.200 231.171 C 202.739 230.290,208.724 227.506,216.000 224.287 C 220.142 222.454,221.432 221.864,222.000 221.538 C 222.330 221.349,223.050 220.996,223.600 220.754 C 224.150 220.512,224.870 220.150,225.200 219.949 C 225.530 219.748,226.411 219.304,227.158 218.962 C 227.905 218.620,228.773 218.084,229.087 217.770 C 229.401 217.457,229.994 217.200,230.405 217.200 C 230.816 217.200,231.266 217.017,231.404 216.794 C 231.541 216.571,232.317 216.026,233.127 215.583 C 233.937 215.140,235.140 214.422,235.800 213.988 C 236.460 213.554,237.450 212.974,238.000 212.700 C 238.550 212.425,240.865 210.940,243.144 209.400 C 245.423 207.860,247.583 206.419,247.944 206.197 C 249.266 205.384,256.265 200.087,257.374 199.059 C 258.003 198.477,258.627 198.000,258.763 198.000 C 258.898 198.000,259.726 197.320,260.604 196.488 C 261.482 195.657,263.184 194.172,264.387 193.188 C 268.693 189.667,278.928 179.139,283.809 173.210 C 285.344 171.345,286.870 169.519,287.200 169.152 C 288.161 168.082,289.352 166.574,290.000 165.606 C 290.735 164.508,292.610 162.010,293.295 161.215 C 293.573 160.893,293.980 160.324,294.200 159.950 C 294.420 159.576,295.185 158.436,295.900 157.415 C 296.615 156.395,297.200 155.417,297.200 155.242 C 297.200 155.067,297.560 154.598,298.000 154.200 C 298.440 153.802,298.800 153.256,298.800 152.987 C 298.800 152.718,299.080 152.265,299.423 151.981 C 299.766 151.696,300.307 150.909,300.626 150.232 C 300.945 149.554,301.647 148.280,302.187 147.400 C 302.727 146.520,303.373 145.305,303.623 144.700 C 303.874 144.095,304.227 143.600,304.408 143.600 C 304.590 143.600,304.941 142.984,305.189 142.232 C 305.438 141.480,305.890 140.657,306.195 140.404 C 306.499 140.152,306.862 139.430,307.000 138.800 C 307.138 138.170,307.498 137.450,307.800 137.200 C 308.102 136.950,308.462 136.230,308.600 135.600 C 308.738 134.970,309.098 134.250,309.400 134.000 C 309.702 133.750,310.062 133.030,310.200 132.400 C 310.338 131.770,310.710 131.041,311.026 130.779 C 311.342 130.517,311.600 130.043,311.600 129.726 C 311.600 129.410,312.066 128.127,312.635 126.875 C 315.989 119.499,316.400 117.862,316.400 111.880 C 316.400 108.250,316.235 106.442,315.834 105.666 C 315.523 105.065,315.146 103.918,314.996 103.117 C 314.655 101.303,312.904 97.847,310.710 94.660 C 310.050 93.701,306.299 89.950,305.340 89.290 C 302.153 87.096,298.697 85.345,296.883 85.004 C 296.082 84.854,294.935 84.477,294.334 84.166 C 292.840 83.393,282.641 83.395,281.200 84.169 M218.200 259.580 C 216.393 259.846,214.437 260.589,212.800 261.633 C 212.470 261.844,211.646 262.272,210.968 262.585 C 210.291 262.898,209.504 263.434,209.219 263.777 C 208.935 264.120,208.482 264.400,208.213 264.400 C 207.944 264.400,207.398 264.760,207.000 265.200 C 206.602 265.640,206.034 266.000,205.738 266.000 C 205.442 266.000,205.200 266.143,205.200 266.318 C 205.200 266.493,204.255 267.348,203.100 268.218 C 201.945 269.088,200.770 269.980,200.489 270.200 C 199.378 271.070,193.027 277.069,192.044 278.178 C 191.470 278.826,190.270 280.086,189.378 280.978 C 188.486 281.870,187.023 283.590,186.129 284.800 C 185.234 286.010,184.024 287.540,183.440 288.200 C 181.882 289.959,181.445 290.498,181.000 291.210 C 179.209 294.073,178.674 294.800,178.360 294.800 C 178.162 294.800,178.000 294.987,178.000 295.216 C 178.000 295.445,177.668 296.120,177.263 296.716 C 174.647 300.563,173.251 302.811,173.016 303.550 C 172.867 304.018,172.590 304.400,172.400 304.400 C 172.210 304.400,171.930 304.805,171.779 305.300 C 171.628 305.795,171.150 306.991,170.716 307.959 L 169.926 309.718 170.851 312.045 C 171.546 313.795,172.159 314.624,173.324 315.386 L 174.872 316.400 233.856 316.400 C 283.914 316.400,293.005 316.314,293.934 315.834 C 294.535 315.523,295.741 315.135,296.614 314.973 C 297.486 314.810,299.100 314.168,300.200 313.546 C 301.300 312.925,302.913 312.029,303.784 311.557 C 305.547 310.601,311.600 304.615,311.600 303.827 C 311.600 303.550,311.960 302.998,312.400 302.600 C 312.840 302.202,313.200 301.568,313.200 301.192 C 313.200 300.816,313.534 300.079,313.942 299.554 C 314.350 299.029,314.816 297.886,314.976 297.014 C 315.137 296.141,315.532 294.918,315.855 294.294 C 317.971 290.202,316.055 279.869,311.676 271.761 C 309.734 268.165,301.511 261.859,297.662 261.014 C 296.963 260.860,295.809 260.434,295.096 260.067 C 293.705 259.351,222.818 258.902,218.200 259.580 " stroke="none" fill="#F76F53" fill-rule="evenodd"/>
    <path id="path1" d="M73.200 0.400 C 73.200 0.631,71.934 0.800,70.203 0.800 C 67.640 0.800,67.135 0.916,66.707 1.600 C 66.302 2.250,65.774 2.400,63.904 2.400 C 61.867 2.400,61.600 2.493,61.600 3.200 C 61.600 3.905,61.333 4.000,59.363 4.000 C 57.462 4.000,57.094 4.120,56.916 4.800 C 56.754 5.420,56.370 5.600,55.215 5.600 C 54.232 5.600,53.477 5.873,53.000 6.400 C 52.602 6.840,51.854 7.200,51.338 7.200 C 50.822 7.200,50.040 7.560,49.600 8.000 C 49.160 8.440,48.348 8.800,47.796 8.800 C 47.244 8.800,46.484 9.160,46.107 9.600 C 45.730 10.040,45.102 10.400,44.711 10.400 C 44.267 10.400,44.000 10.700,44.000 11.200 C 44.000 11.852,43.733 12.000,42.563 12.000 C 41.462 12.000,41.076 12.187,40.916 12.800 C 40.801 13.240,40.396 13.600,40.015 13.600 C 39.635 13.600,38.998 13.960,38.600 14.400 C 38.202 14.840,37.527 15.200,37.101 15.200 C 36.662 15.200,36.234 15.547,36.116 16.000 C 36.000 16.443,35.570 16.800,35.153 16.800 C 34.667 16.800,34.400 17.083,34.400 17.600 C 34.400 18.065,34.133 18.400,33.763 18.400 C 33.066 18.400,31.648 19.413,29.216 21.650 C 28.349 22.447,27.361 23.206,27.020 23.337 C 26.679 23.468,26.400 23.851,26.400 24.187 C 26.400 24.524,26.113 24.800,25.763 24.800 C 25.412 24.800,25.035 25.143,24.926 25.563 C 24.816 25.983,24.383 26.416,23.963 26.526 C 23.543 26.635,23.200 27.012,23.200 27.363 C 23.200 27.713,22.924 28.000,22.587 28.000 C 22.251 28.000,21.857 28.315,21.714 28.700 C 21.570 29.085,21.126 29.635,20.726 29.923 C 20.327 30.210,20.000 30.615,20.000 30.823 C 20.000 31.030,19.640 31.560,19.200 32.000 C 18.760 32.440,18.400 33.160,18.400 33.600 C 18.400 34.133,18.133 34.400,17.600 34.400 C 17.083 34.400,16.800 34.667,16.800 35.153 C 16.800 35.570,16.443 36.000,16.000 36.116 C 15.547 36.234,15.200 36.662,15.200 37.101 C 15.200 37.527,14.840 38.202,14.400 38.600 C 13.960 38.998,13.600 39.635,13.600 40.015 C 13.600 40.396,13.240 40.801,12.800 40.916 C 12.187 41.076,12.000 41.462,12.000 42.563 C 12.000 43.733,11.852 44.000,11.200 44.000 C 10.700 44.000,10.400 44.267,10.400 44.711 C 10.400 45.102,10.040 45.730,9.600 46.107 C 9.160 46.484,8.800 47.244,8.800 47.796 C 8.800 48.348,8.440 49.160,8.000 49.600 C 7.560 50.040,7.200 50.900,7.200 51.512 C 7.200 52.165,6.870 52.861,6.400 53.200 C 5.851 53.596,5.600 54.235,5.600 55.242 C 5.600 56.370,5.416 56.755,4.800 56.916 C 4.120 57.094,4.000 57.462,4.000 59.363 C 4.000 61.333,3.905 61.600,3.200 61.600 C 2.493 61.600,2.400 61.867,2.400 63.904 C 2.400 65.774,2.250 66.302,1.600 66.707 C 0.916 67.135,0.800 67.640,0.800 70.203 C 0.800 71.934,0.631 73.200,0.400 73.200 C 0.134 73.200,0.000 115.733,0.000 200.000 C 0.000 284.267,0.134 326.800,0.400 326.800 C 0.631 326.800,0.800 328.066,0.800 329.797 C 0.800 332.360,0.916 332.865,1.600 333.293 C 2.238 333.691,2.400 334.226,2.400 335.934 C 2.400 337.738,2.526 338.108,3.200 338.284 C 3.877 338.461,4.000 338.830,4.000 340.684 C 4.000 342.538,4.123 342.907,4.800 343.084 C 5.416 343.245,5.600 343.630,5.600 344.758 C 5.600 345.765,5.851 346.404,6.400 346.800 C 6.870 347.139,7.200 347.835,7.200 348.488 C 7.200 349.100,7.535 349.935,7.945 350.345 C 8.355 350.755,8.813 351.745,8.963 352.545 C 9.129 353.426,9.466 354.000,9.818 354.000 C 10.172 354.000,10.400 354.392,10.400 355.000 C 10.400 355.733,10.613 356.000,11.200 356.000 C 11.852 356.000,12.000 356.267,12.000 357.437 C 12.000 358.538,12.187 358.924,12.800 359.084 C 13.240 359.199,13.600 359.604,13.600 359.985 C 13.600 360.365,13.960 361.002,14.400 361.400 C 14.840 361.798,15.200 362.473,15.200 362.899 C 15.200 363.338,15.547 363.766,16.000 363.884 C 16.443 364.000,16.800 364.430,16.800 364.847 C 16.800 365.333,17.083 365.600,17.600 365.600 C 18.065 365.600,18.400 365.867,18.400 366.237 C 18.400 366.934,19.413 368.352,21.650 370.784 C 22.447 371.651,23.206 372.639,23.337 372.980 C 23.468 373.321,23.851 373.600,24.187 373.600 C 24.524 373.600,24.800 373.887,24.800 374.237 C 24.800 374.588,25.160 374.969,25.600 375.084 C 26.040 375.199,26.400 375.548,26.400 375.859 C 26.400 376.170,26.679 376.532,27.020 376.663 C 27.361 376.794,28.349 377.553,29.216 378.350 C 31.648 380.587,33.066 381.600,33.763 381.600 C 34.133 381.600,34.400 381.935,34.400 382.400 C 34.400 382.917,34.667 383.200,35.153 383.200 C 35.570 383.200,36.000 383.557,36.116 384.000 C 36.234 384.453,36.662 384.800,37.101 384.800 C 37.527 384.800,38.202 385.160,38.600 385.600 C 38.998 386.040,39.635 386.400,40.015 386.400 C 40.396 386.400,40.801 386.760,40.916 387.200 C 41.076 387.813,41.462 388.000,42.563 388.000 C 43.733 388.000,44.000 388.148,44.000 388.800 C 44.000 389.387,44.267 389.600,45.000 389.600 C 45.608 389.600,46.000 389.828,46.000 390.182 C 46.000 390.534,46.574 390.871,47.455 391.037 C 48.255 391.187,49.245 391.645,49.655 392.055 C 50.065 392.465,50.822 392.800,51.338 392.800 C 51.854 392.800,52.602 393.160,53.000 393.600 C 53.477 394.127,54.232 394.400,55.215 394.400 C 56.370 394.400,56.754 394.580,56.916 395.200 C 57.093 395.877,57.462 396.000,59.316 396.000 C 61.170 396.000,61.539 396.123,61.716 396.800 C 61.892 397.474,62.262 397.600,64.066 397.600 C 65.774 397.600,66.309 397.762,66.707 398.400 C 67.135 399.084,67.640 399.200,70.203 399.200 C 71.934 399.200,73.200 399.369,73.200 399.600 C 73.200 399.866,115.733 400.000,200.000 400.000 C 284.267 400.000,326.800 399.866,326.800 399.600 C 326.800 399.369,328.066 399.200,329.797 399.200 C 332.360 399.200,332.865 399.084,333.293 398.400 C 333.691 397.762,334.226 397.600,335.934 397.600 C 337.738 397.600,338.108 397.474,338.284 396.800 C 338.461 396.123,338.830 396.000,340.684 396.000 C 342.538 396.000,342.907 395.877,343.084 395.200 C 343.245 394.584,343.630 394.400,344.758 394.400 C 345.765 394.400,346.404 394.149,346.800 393.600 C 347.117 393.160,347.742 392.798,348.188 392.795 C 349.590 392.785,350.800 392.326,350.800 391.804 C 350.800 391.528,351.519 391.187,352.400 391.046 C 353.435 390.881,354.000 390.580,354.000 390.195 C 354.000 389.827,354.381 389.600,355.000 389.600 C 355.733 389.600,356.000 389.387,356.000 388.800 C 356.000 388.148,356.267 388.000,357.437 388.000 C 358.538 388.000,358.924 387.813,359.084 387.200 C 359.199 386.760,359.593 386.400,359.958 386.400 C 360.324 386.400,360.883 386.040,361.200 385.600 C 361.517 385.160,362.204 384.800,362.726 384.800 C 363.338 384.800,363.749 384.516,363.884 384.000 C 364.000 383.557,364.430 383.200,364.847 383.200 C 365.333 383.200,365.600 382.917,365.600 382.400 C 365.600 381.867,365.867 381.600,366.400 381.600 C 366.840 381.600,367.560 381.240,368.000 380.800 C 368.440 380.360,368.942 380.000,369.116 380.000 C 369.291 380.000,370.065 379.313,370.836 378.473 C 371.608 377.634,372.546 376.830,372.920 376.686 C 373.294 376.543,373.600 376.170,373.600 375.859 C 373.600 375.548,373.960 375.199,374.400 375.084 C 374.840 374.969,375.200 374.609,375.200 374.284 C 375.200 373.959,375.560 373.599,376.000 373.484 C 376.440 373.369,376.800 372.988,376.800 372.637 C 376.800 372.287,377.076 372.000,377.413 372.000 C 377.749 372.000,378.139 371.685,378.278 371.300 C 378.416 370.915,378.770 370.330,379.063 370.000 C 380.667 368.194,381.600 366.812,381.600 366.242 C 381.600 365.867,381.932 365.600,382.400 365.600 C 382.917 365.600,383.200 365.333,383.200 364.847 C 383.200 364.430,383.557 364.000,384.000 363.884 C 384.516 363.749,384.800 363.338,384.800 362.726 C 384.800 362.204,385.160 361.517,385.600 361.200 C 386.040 360.883,386.400 360.324,386.400 359.958 C 386.400 359.593,386.760 359.199,387.200 359.084 C 387.813 358.924,388.000 358.538,388.000 357.437 C 388.000 356.267,388.148 356.000,388.800 356.000 C 389.387 356.000,389.600 355.733,389.600 355.000 C 389.600 354.392,389.828 354.000,390.182 354.000 C 390.534 354.000,390.871 353.426,391.037 352.545 C 391.187 351.745,391.645 350.755,392.055 350.345 C 392.465 349.935,392.800 349.178,392.800 348.662 C 392.800 348.146,393.160 347.398,393.600 347.000 C 394.127 346.523,394.400 345.768,394.400 344.785 C 394.400 343.630,394.580 343.246,395.200 343.084 C 395.880 342.906,396.000 342.538,396.000 340.637 C 396.000 338.667,396.095 338.400,396.800 338.400 C 397.507 338.400,397.600 338.133,397.600 336.096 C 397.600 334.226,397.750 333.698,398.400 333.293 C 399.084 332.865,399.200 332.360,399.200 329.797 C 399.200 328.066,399.369 326.800,399.600 326.800 C 399.866 326.800,400.000 284.267,400.000 200.000 C 400.000 115.733,399.866 73.200,399.600 73.200 C 399.369 73.200,399.200 71.934,399.200 70.203 C 399.200 67.640,399.084 67.135,398.400 66.707 C 397.750 66.302,397.600 65.774,397.600 63.904 C 397.600 61.867,397.507 61.600,396.800 61.600 C 396.095 61.600,396.000 61.333,396.000 59.363 C 396.000 57.462,395.880 57.094,395.200 56.916 C 394.580 56.754,394.400 56.370,394.400 55.215 C 394.400 54.232,394.127 53.477,393.600 53.000 C 393.160 52.602,392.800 51.854,392.800 51.338 C 392.800 50.822,392.440 50.040,392.000 49.600 C 391.560 49.160,391.200 48.348,391.200 47.796 C 391.200 47.244,390.840 46.484,390.400 46.107 C 389.960 45.730,389.600 45.102,389.600 44.711 C 389.600 44.267,389.300 44.000,388.800 44.000 C 388.148 44.000,388.000 43.733,388.000 42.563 C 388.000 41.462,387.813 41.076,387.200 40.916 C 386.760 40.801,386.400 40.396,386.400 40.015 C 386.400 39.635,386.040 38.998,385.600 38.600 C 385.160 38.202,384.800 37.527,384.800 37.101 C 384.800 36.662,384.453 36.234,384.000 36.116 C 383.557 36.000,383.200 35.570,383.200 35.153 C 383.200 34.667,382.917 34.400,382.400 34.400 C 381.889 34.400,381.600 34.133,381.600 33.662 C 381.600 33.256,381.240 32.598,380.800 32.200 C 380.360 31.802,380.000 31.244,380.000 30.961 C 380.000 30.677,379.673 30.210,379.274 29.923 C 378.874 29.635,378.430 29.085,378.286 28.700 C 378.143 28.315,377.770 28.000,377.459 28.000 C 377.148 28.000,376.799 27.640,376.684 27.200 C 376.569 26.760,376.209 26.400,375.884 26.400 C 375.559 26.400,375.199 26.040,375.084 25.600 C 374.969 25.160,374.609 24.800,374.284 24.800 C 373.959 24.800,373.599 24.440,373.484 24.000 C 373.369 23.560,372.988 23.200,372.637 23.200 C 372.287 23.200,372.000 22.924,372.000 22.587 C 372.000 22.251,371.685 21.857,371.300 21.714 C 370.915 21.570,370.365 21.126,370.077 20.726 C 369.790 20.327,369.385 20.000,369.177 20.000 C 368.970 20.000,368.440 19.640,368.000 19.200 C 367.560 18.760,366.840 18.400,366.400 18.400 C 365.867 18.400,365.600 18.133,365.600 17.600 C 365.600 17.083,365.333 16.800,364.847 16.800 C 364.430 16.800,364.000 16.443,363.884 16.000 C 363.766 15.547,363.338 15.200,362.899 15.200 C 362.473 15.200,361.798 14.840,361.400 14.400 C 361.002 13.960,360.365 13.600,359.985 13.600 C 359.604 13.600,359.199 13.240,359.084 12.800 C 358.924 12.187,358.538 12.000,357.437 12.000 C 356.267 12.000,356.000 11.852,356.000 11.200 C 356.000 10.700,355.733 10.400,355.289 10.400 C 354.898 10.400,354.270 10.040,353.893 9.600 C 353.489 9.129,352.713 8.800,352.004 8.800 C 351.205 8.800,350.800 8.600,350.800 8.205 C 350.800 7.821,350.239 7.520,349.218 7.357 C 348.349 7.217,347.331 6.765,346.956 6.352 C 346.522 5.872,345.736 5.600,344.785 5.600 C 343.630 5.600,343.246 5.420,343.084 4.800 C 342.906 4.120,342.538 4.000,340.637 4.000 C 338.667 4.000,338.400 3.905,338.400 3.200 C 338.400 2.493,338.133 2.400,336.096 2.400 C 334.226 2.400,333.698 2.250,333.293 1.600 C 332.865 0.916,332.360 0.800,329.797 0.800 C 328.066 0.800,326.800 0.631,326.800 0.400 C 326.800 0.134,284.267 0.000,200.000 0.000 C 115.733 0.000,73.200 0.134,73.200 0.400 M224.233 82.465 C 230.480 83.693,232.851 89.878,229.193 95.400 C 228.756 96.060,228.139 97.154,227.822 97.832 C 227.505 98.509,226.966 99.296,226.623 99.581 C 226.280 99.865,226.000 100.248,226.000 100.431 C 226.000 100.847,224.230 103.581,223.410 104.434 C 223.074 104.782,222.800 105.206,222.800 105.376 C 222.800 105.669,216.463 114.239,215.200 115.654 C 214.870 116.024,213.610 117.443,212.400 118.807 C 207.526 124.305,201.136 130.293,196.200 133.992 C 195.320 134.651,194.337 135.418,194.015 135.695 C 193.266 136.341,192.130 137.022,190.537 137.779 C 189.842 138.110,189.212 138.525,189.137 138.703 C 188.927 139.197,184.868 141.025,182.365 141.751 C 179.180 142.676,112.813 142.713,109.000 141.792 C 107.680 141.473,105.970 141.208,105.200 141.204 C 104.430 141.199,103.260 140.837,102.600 140.400 C 101.940 139.963,101.023 139.604,100.561 139.603 C 100.100 139.601,99.307 139.240,98.800 138.800 C 98.293 138.360,97.647 138.000,97.365 138.000 C 95.662 138.000,86.000 128.338,86.000 126.635 C 86.000 126.353,85.640 125.707,85.200 125.200 C 84.760 124.693,84.400 123.951,84.400 123.551 C 84.400 123.152,83.998 122.054,83.507 121.112 C 82.678 119.521,82.615 118.878,82.615 112.000 C 82.615 105.122,82.678 104.479,83.507 102.888 C 83.998 101.946,84.400 100.843,84.400 100.437 C 84.400 100.030,84.661 99.482,84.980 99.217 C 85.298 98.952,85.757 98.136,85.999 97.403 C 86.241 96.670,86.700 95.970,87.019 95.848 C 87.339 95.725,87.600 95.357,87.600 95.030 C 87.600 94.253,94.253 87.600,95.030 87.600 C 95.357 87.600,95.725 87.339,95.848 87.019 C 95.970 86.700,96.670 86.241,97.403 85.999 C 98.136 85.757,98.952 85.298,99.217 84.980 C 99.482 84.661,100.037 84.400,100.450 84.400 C 100.864 84.400,101.875 84.040,102.696 83.600 C 103.516 83.160,105.001 82.784,105.994 82.765 C 106.987 82.746,108.700 82.590,109.800 82.418 C 113.233 81.884,221.500 81.928,224.233 82.465 M297.098 83.605 C 297.839 84.042,298.689 84.400,298.986 84.400 C 299.761 84.400,303.740 86.485,304.120 87.090 C 304.296 87.371,304.702 87.600,305.022 87.600 C 305.770 87.600,312.400 94.244,312.400 94.994 C 312.400 95.305,312.629 95.704,312.910 95.880 C 313.515 96.260,315.600 100.239,315.600 101.014 C 315.600 101.311,316.002 102.235,316.493 103.067 C 317.854 105.374,317.854 118.501,316.493 121.112 C 316.002 122.054,315.600 123.098,315.600 123.433 C 315.600 123.768,315.262 124.707,314.849 125.521 C 314.156 126.885,313.118 129.134,312.042 131.600 C 311.802 132.150,311.444 132.870,311.246 133.200 C 311.048 133.530,310.688 134.250,310.446 134.800 C 310.204 135.350,309.844 136.070,309.646 136.400 C 309.448 136.730,309.088 137.450,308.846 138.000 C 308.604 138.550,308.244 139.270,308.046 139.600 C 307.848 139.930,307.484 140.650,307.238 141.200 C 306.993 141.750,306.431 142.740,305.989 143.400 C 305.548 144.060,304.893 145.275,304.533 146.100 C 304.173 146.925,303.740 147.600,303.570 147.600 C 303.401 147.600,303.054 148.230,302.800 149.000 C 302.546 149.770,302.163 150.400,301.948 150.400 C 301.734 150.400,301.370 150.940,301.140 151.600 C 300.910 152.260,300.571 152.800,300.388 152.800 C 300.204 152.800,299.930 153.205,299.780 153.700 C 299.629 154.195,299.228 154.916,298.888 155.303 C 298.549 155.689,298.075 156.339,297.836 156.746 C 296.278 159.392,288.098 170.463,285.943 172.841 C 285.424 173.413,284.011 175.033,282.803 176.441 C 280.018 179.685,267.813 191.903,264.460 194.803 C 263.063 196.011,261.473 197.411,260.926 197.913 C 260.379 198.415,258.912 199.564,257.666 200.466 C 256.419 201.369,255.220 202.311,255.000 202.559 C 254.780 202.808,254.150 203.316,253.600 203.689 C 253.050 204.062,251.610 205.090,250.400 205.973 C 246.385 208.904,244.763 210.000,244.442 210.000 C 244.267 210.000,243.798 210.360,243.400 210.800 C 243.002 211.240,242.493 211.600,242.270 211.600 C 242.046 211.600,241.533 211.899,241.129 212.264 C 240.266 213.046,239.131 213.730,237.200 214.634 C 236.430 214.995,235.710 215.424,235.600 215.589 C 235.368 215.936,230.831 218.517,228.842 219.433 C 228.095 219.778,227.227 220.316,226.913 220.630 C 226.599 220.943,226.020 221.200,225.625 221.200 C 225.231 221.200,224.450 221.560,223.891 222.000 C 223.331 222.440,222.611 222.800,222.291 222.800 C 221.970 222.800,221.250 223.160,220.691 223.600 C 220.131 224.040,219.371 224.400,219.000 224.400 C 218.629 224.400,217.869 224.760,217.309 225.200 C 216.750 225.640,215.891 226.000,215.400 226.000 C 214.909 226.000,214.079 226.333,213.554 226.739 C 213.029 227.145,212.083 227.604,211.452 227.759 C 210.820 227.913,210.042 228.301,209.723 228.620 C 209.404 228.939,208.730 229.200,208.225 229.200 C 207.721 229.200,206.850 229.560,206.291 230.000 C 205.731 230.440,205.011 230.800,204.691 230.800 C 204.370 230.800,203.650 231.160,203.091 231.600 C 202.531 232.040,201.811 232.400,201.491 232.400 C 201.170 232.400,200.450 232.760,199.891 233.200 C 199.331 233.640,198.615 234.000,198.299 234.000 C 197.983 234.000,197.398 234.360,197.000 234.800 C 196.602 235.240,195.966 235.600,195.587 235.600 C 195.208 235.600,194.658 235.889,194.365 236.242 C 194.073 236.595,193.465 237.054,193.016 237.262 C 191.480 237.975,185.548 241.791,184.110 242.991 C 183.580 243.433,182.694 244.114,180.200 245.993 C 177.146 248.295,175.458 249.835,168.747 256.441 C 165.036 260.094,162.000 263.280,162.000 263.521 C 162.000 263.763,161.746 264.104,161.436 264.280 C 161.126 264.456,159.959 265.770,158.844 267.200 C 157.728 268.630,156.541 270.085,156.207 270.434 C 155.873 270.782,155.600 271.237,155.600 271.445 C 155.600 271.652,155.285 272.110,154.900 272.462 C 154.515 272.814,153.660 274.021,153.000 275.143 C 152.340 276.266,151.667 277.188,151.505 277.192 C 151.343 277.197,150.939 277.785,150.606 278.500 C 150.274 279.215,149.641 280.340,149.200 281.000 C 148.759 281.660,148.139 282.754,147.822 283.432 C 147.505 284.109,146.966 284.896,146.623 285.181 C 146.280 285.465,146.000 286.008,146.000 286.388 C 146.000 286.767,145.640 287.493,145.200 288.000 C 144.760 288.507,144.400 289.227,144.400 289.600 C 144.400 289.973,144.040 290.693,143.600 291.200 C 143.160 291.707,142.800 292.431,142.800 292.807 C 142.800 293.184,142.440 293.950,142.000 294.509 C 141.560 295.069,141.200 295.789,141.200 296.110 C 141.200 296.833,137.838 303.474,137.007 304.392 C 136.673 304.761,136.400 305.203,136.400 305.375 C 136.400 306.412,127.779 314.000,126.602 314.000 C 126.338 314.000,125.707 314.360,125.200 314.800 C 124.693 315.240,123.951 315.600,123.551 315.600 C 123.152 315.600,122.054 316.002,121.112 316.493 C 118.501 317.854,105.374 317.854,103.067 316.493 C 102.235 316.002,101.311 315.600,101.014 315.600 C 100.239 315.600,96.260 313.515,95.880 312.910 C 95.704 312.629,95.307 312.400,94.997 312.400 C 94.263 312.400,87.600 305.737,87.600 305.003 C 87.600 304.693,87.367 304.296,87.082 304.120 C 86.797 303.944,86.101 302.810,85.535 301.600 C 84.969 300.390,84.084 298.500,83.568 297.400 C 82.160 294.398,82.113 281.530,83.501 278.888 C 83.995 277.946,84.400 276.902,84.400 276.567 C 84.400 276.232,84.738 275.293,85.151 274.479 C 85.844 273.115,86.882 270.866,87.958 268.400 C 88.198 267.850,88.556 267.130,88.754 266.800 C 88.952 266.470,89.312 265.750,89.554 265.200 C 89.796 264.650,90.156 263.930,90.354 263.600 C 90.552 263.270,90.912 262.550,91.154 262.000 C 91.396 261.450,91.746 260.730,91.932 260.400 C 93.031 258.451,93.633 257.275,94.030 256.300 C 94.277 255.695,94.627 255.200,94.808 255.200 C 94.990 255.200,95.346 254.570,95.600 253.800 C 95.854 253.030,96.214 252.400,96.400 252.400 C 96.586 252.400,96.941 251.786,97.188 251.035 C 97.436 250.285,97.900 249.570,98.219 249.448 C 98.539 249.325,98.800 248.977,98.800 248.674 C 98.800 248.371,99.160 247.707,99.600 247.200 C 100.040 246.693,100.400 246.063,100.400 245.801 C 100.400 245.539,100.760 244.998,101.200 244.600 C 101.640 244.202,102.000 243.662,102.000 243.400 C 102.000 243.138,102.360 242.598,102.800 242.200 C 103.240 241.802,103.600 241.319,103.600 241.126 C 103.600 240.934,104.275 239.894,105.100 238.815 C 105.925 237.736,107.050 236.209,107.600 235.423 C 108.150 234.637,109.117 233.410,109.749 232.697 C 110.380 231.984,111.192 230.928,111.553 230.352 C 112.289 229.175,115.724 225.103,117.100 223.776 C 117.595 223.299,118.000 222.774,118.000 222.609 C 118.000 222.190,132.450 207.853,135.556 205.191 C 136.961 203.986,138.491 202.620,138.956 202.155 C 139.420 201.691,140.880 200.537,142.200 199.592 C 143.520 198.646,144.908 197.586,145.284 197.236 C 146.132 196.448,147.226 195.620,149.800 193.820 C 150.900 193.050,152.574 191.876,153.520 191.210 C 154.466 190.545,155.383 190.000,155.558 190.000 C 155.733 190.000,156.202 189.640,156.600 189.200 C 156.998 188.760,157.538 188.400,157.800 188.400 C 158.062 188.400,158.602 188.040,159.000 187.600 C 159.398 187.160,159.944 186.800,160.213 186.800 C 160.482 186.800,160.889 186.574,161.118 186.299 C 161.347 186.023,162.674 185.191,164.067 184.451 C 165.460 183.710,167.320 182.684,168.200 182.171 C 169.080 181.658,171.150 180.566,172.800 179.745 C 174.450 178.924,176.038 178.015,176.329 177.726 C 176.619 177.437,177.177 177.200,177.567 177.200 C 177.958 177.200,178.693 176.840,179.200 176.400 C 179.707 175.960,180.500 175.599,180.961 175.597 C 181.423 175.596,182.340 175.237,183.000 174.800 C 183.660 174.363,184.491 174.004,184.846 174.003 C 185.201 174.001,185.950 173.640,186.509 173.200 C 187.069 172.760,187.858 172.399,188.263 172.397 C 188.668 172.396,189.540 172.037,190.200 171.600 C 190.860 171.163,191.687 170.804,192.039 170.803 C 192.390 170.801,193.093 170.440,193.600 170.000 C 194.107 169.560,194.736 169.200,194.997 169.200 C 195.408 169.200,199.009 167.470,200.800 166.412 C 201.130 166.217,201.670 165.952,202.000 165.822 C 202.330 165.693,203.410 165.054,204.400 164.402 C 205.390 163.750,206.560 163.023,207.000 162.787 C 209.902 161.233,215.292 157.602,215.720 156.914 C 215.896 156.631,216.241 156.400,216.486 156.400 C 216.732 156.400,217.218 156.127,217.566 155.793 C 217.915 155.459,219.288 154.334,220.617 153.293 C 221.947 152.252,223.364 151.130,223.768 150.800 C 224.956 149.828,238.112 136.635,239.161 135.364 C 239.689 134.724,240.858 133.210,241.758 132.000 C 242.659 130.790,243.621 129.656,243.898 129.480 C 244.174 129.304,244.400 128.939,244.400 128.669 C 244.400 128.399,244.715 127.890,245.100 127.538 C 245.485 127.186,246.340 125.979,247.000 124.857 C 247.660 123.734,248.333 122.812,248.495 122.808 C 248.657 122.803,249.061 122.215,249.394 121.500 C 249.726 120.785,250.354 119.660,250.789 119.000 C 251.875 117.353,253.014 115.314,253.948 113.344 C 254.380 112.433,254.929 111.568,255.167 111.420 C 255.405 111.273,255.600 110.828,255.600 110.430 C 255.600 110.033,255.960 109.250,256.400 108.691 C 256.840 108.131,257.200 107.411,257.200 107.091 C 257.200 106.770,257.560 106.050,258.000 105.491 C 258.440 104.931,258.800 104.178,258.800 103.816 C 258.800 103.252,259.643 101.379,260.876 99.200 C 261.063 98.870,261.472 98.046,261.785 97.368 C 262.098 96.691,262.634 95.904,262.977 95.619 C 263.320 95.335,263.602 94.899,263.604 94.651 C 263.611 93.912,269.904 87.600,270.633 87.600 C 270.800 87.600,271.230 87.335,271.587 87.012 C 272.580 86.113,275.955 84.400,276.732 84.400 C 277.112 84.400,277.850 84.100,278.374 83.733 C 280.580 82.188,294.534 82.092,297.098 83.605 M291.600 258.200 C 292.810 258.525,294.430 258.794,295.200 258.798 C 295.970 258.802,297.140 259.163,297.800 259.600 C 298.460 260.037,299.332 260.396,299.737 260.397 C 300.142 260.399,300.931 260.760,301.491 261.200 C 302.050 261.640,302.726 262.000,302.992 262.000 C 303.258 262.000,303.802 262.360,304.200 262.800 C 304.598 263.240,305.096 263.600,305.306 263.600 C 305.865 263.600,308.493 265.993,310.600 268.422 C 312.711 270.854,315.600 275.543,315.600 276.535 C 315.600 276.887,316.001 277.944,316.490 278.883 C 317.842 281.477,317.842 294.123,316.490 296.717 C 316.001 297.656,315.600 298.755,315.600 299.158 C 315.600 299.562,315.240 300.350,314.800 300.909 C 314.360 301.469,314.000 302.185,314.000 302.501 C 314.000 302.817,313.640 303.402,313.200 303.800 C 312.760 304.198,312.400 304.700,312.400 304.916 C 312.400 305.132,311.995 305.699,311.500 306.176 C 311.005 306.653,310.137 307.573,309.571 308.222 C 307.778 310.275,303.016 314.000,302.183 314.000 C 301.930 314.000,301.307 314.360,300.800 314.800 C 300.293 315.240,299.550 315.600,299.149 315.600 C 298.749 315.600,297.652 315.944,296.711 316.364 C 295.702 316.814,293.188 317.307,290.582 317.564 C 284.178 318.196,178.995 318.169,175.767 317.535 C 169.520 316.307,167.149 310.122,170.807 304.600 C 171.244 303.940,171.861 302.846,172.178 302.168 C 172.495 301.491,173.034 300.704,173.377 300.419 C 173.720 300.135,174.000 299.752,174.000 299.569 C 174.000 299.153,175.770 296.419,176.590 295.566 C 176.926 295.218,177.200 294.819,177.200 294.681 C 177.200 294.205,183.121 286.178,184.800 284.378 C 185.130 284.024,186.390 282.598,187.600 281.210 C 191.300 276.965,195.387 273.008,201.450 267.800 C 201.962 267.360,203.033 266.550,203.829 266.000 C 204.626 265.450,205.570 264.685,205.928 264.300 C 206.285 263.915,206.780 263.600,207.027 263.600 C 207.274 263.600,207.802 263.240,208.200 262.800 C 208.598 262.360,209.153 262.000,209.433 262.000 C 209.714 262.000,210.181 261.770,210.471 261.488 C 211.213 260.770,215.019 259.010,217.400 258.285 C 220.364 257.383,288.264 257.305,291.600 258.200 " stroke="none" fill="none" fill-rule="evenodd"/>
    <path id="path2" d="M109.800 82.418 C 108.700 82.590,106.987 82.746,105.994 82.765 C 105.001 82.784,103.516 83.160,102.696 83.600 C 101.875 84.040,100.864 84.400,100.450 84.400 C 100.037 84.400,99.482 84.661,99.217 84.980 C 98.952 85.298,98.136 85.757,97.403 85.999 C 96.670 86.241,95.970 86.700,95.848 87.019 C 95.725 87.339,95.357 87.600,95.030 87.600 C 94.253 87.600,87.600 94.253,87.600 95.030 C 87.600 95.357,87.339 95.725,87.019 95.848 C 86.700 95.970,86.241 96.670,85.999 97.403 C 85.757 98.136,85.298 98.952,84.980 99.217 C 84.661 99.482,84.400 100.030,84.400 100.437 C 84.400 100.843,84.045 101.857,83.610 102.690 C 82.964 103.931,82.787 105.254,82.636 110.003 L 82.451 115.800 82.796 110.917 C 83.716 97.869,90.788 88.569,103.200 84.084 L 106.200 83.000 166.023 83.000 L 225.847 83.000 227.223 84.158 C 230.613 87.010,231.305 90.554,229.183 94.200 C 228.542 95.300,227.722 96.740,227.360 97.400 C 218.546 113.459,199.277 133.241,186.000 139.862 C 182.729 141.494,180.428 141.594,146.142 141.597 C 106.110 141.601,105.313 141.538,98.167 137.815 C 91.034 134.099,84.351 125.156,83.210 117.800 L 82.900 115.800 82.850 117.806 C 82.817 119.127,83.073 120.321,83.600 121.304 C 84.040 122.125,84.400 123.130,84.400 123.537 C 84.400 123.944,84.760 124.693,85.200 125.200 C 85.640 125.707,86.000 126.353,86.000 126.635 C 86.000 128.338,95.662 138.000,97.365 138.000 C 97.647 138.000,98.293 138.360,98.800 138.800 C 99.307 139.240,100.100 139.601,100.561 139.603 C 101.023 139.604,101.940 139.963,102.600 140.400 C 103.260 140.837,104.430 141.199,105.200 141.204 C 105.970 141.208,107.680 141.473,109.000 141.792 C 112.813 142.713,179.180 142.676,182.365 141.751 C 184.868 141.025,188.927 139.197,189.137 138.703 C 189.212 138.525,189.842 138.110,190.537 137.779 C 192.130 137.022,193.266 136.341,194.015 135.695 C 194.337 135.418,195.320 134.651,196.200 133.992 C 201.136 130.293,207.526 124.305,212.400 118.807 C 213.610 117.443,214.870 116.024,215.200 115.654 C 216.463 114.239,222.800 105.669,222.800 105.376 C 222.800 105.206,223.074 104.782,223.410 104.434 C 224.230 103.581,226.000 100.847,226.000 100.431 C 226.000 100.248,226.280 99.865,226.623 99.581 C 226.966 99.296,227.505 98.509,227.822 97.832 C 228.139 97.154,228.756 96.060,229.193 95.400 C 232.851 89.878,230.480 83.693,224.233 82.465 C 221.500 81.928,113.233 81.884,109.800 82.418 M281.763 82.759 C 280.422 82.928,278.897 83.367,278.374 83.733 C 277.850 84.100,277.112 84.400,276.732 84.400 C 275.955 84.400,272.580 86.113,271.587 87.012 C 271.230 87.335,270.800 87.600,270.633 87.600 C 269.904 87.600,263.611 93.912,263.604 94.651 C 263.602 94.899,263.320 95.335,262.977 95.619 C 262.634 95.904,262.098 96.691,261.785 97.368 C 261.472 98.046,261.063 98.870,260.876 99.200 C 259.643 101.379,258.800 103.252,258.800 103.816 C 258.800 104.178,258.440 104.931,258.000 105.491 C 257.560 106.050,257.200 106.770,257.200 107.091 C 257.200 107.411,256.840 108.131,256.400 108.691 C 255.960 109.250,255.600 110.033,255.600 110.430 C 255.600 110.828,255.405 111.273,255.167 111.420 C 254.929 111.568,254.380 112.433,253.948 113.344 C 253.014 115.314,251.875 117.353,250.789 119.000 C 250.354 119.660,249.726 120.785,249.394 121.500 C 249.061 122.215,248.657 122.803,248.495 122.808 C 248.333 122.812,247.660 123.734,247.000 124.857 C 246.340 125.979,245.485 127.186,245.100 127.538 C 244.715 127.890,244.400 128.399,244.400 128.669 C 244.400 128.939,244.174 129.304,243.898 129.480 C 243.621 129.656,242.659 130.790,241.758 132.000 C 240.858 133.210,239.689 134.724,239.161 135.364 C 238.112 136.635,224.956 149.828,223.768 150.800 C 223.364 151.130,221.947 152.252,220.617 153.293 C 219.288 154.334,217.915 155.459,217.566 155.793 C 217.218 156.127,216.732 156.400,216.486 156.400 C 216.241 156.400,215.896 156.631,215.720 156.914 C 215.292 157.602,209.902 161.233,207.000 162.787 C 206.560 163.023,205.390 163.750,204.400 164.402 C 203.410 165.054,202.330 165.693,202.000 165.822 C 201.670 165.952,201.130 166.217,200.800 166.412 C 199.009 167.470,195.408 169.200,194.997 169.200 C 194.736 169.200,194.107 169.560,193.600 170.000 C 193.093 170.440,192.390 170.801,192.039 170.803 C 191.687 170.804,190.860 171.163,190.200 171.600 C 189.540 172.037,188.668 172.396,188.263 172.397 C 187.858 172.399,187.069 172.760,186.509 173.200 C 185.950 173.640,185.201 174.001,184.846 174.003 C 184.491 174.004,183.660 174.363,183.000 174.800 C 182.340 175.237,181.423 175.596,180.961 175.597 C 180.500 175.599,179.707 175.960,179.200 176.400 C 178.693 176.840,177.958 177.200,177.567 177.200 C 177.177 177.200,176.619 177.437,176.329 177.726 C 176.038 178.015,174.450 178.924,172.800 179.745 C 171.150 180.566,169.080 181.658,168.200 182.171 C 167.320 182.684,165.460 183.710,164.067 184.451 C 162.674 185.191,161.347 186.023,161.118 186.299 C 160.889 186.574,160.482 186.800,160.213 186.800 C 159.944 186.800,159.398 187.160,159.000 187.600 C 158.602 188.040,158.062 188.400,157.800 188.400 C 157.538 188.400,156.998 188.760,156.600 189.200 C 156.202 189.640,155.733 190.000,155.558 190.000 C 155.383 190.000,154.466 190.545,153.520 191.210 C 152.574 191.876,150.900 193.050,149.800 193.820 C 147.226 195.620,146.132 196.448,145.284 197.236 C 144.908 197.586,143.520 198.646,142.200 199.592 C 140.880 200.537,139.420 201.691,138.956 202.155 C 138.491 202.620,136.961 203.986,135.556 205.191 C 132.450 207.853,118.000 222.190,118.000 222.609 C 118.000 222.774,117.595 223.299,117.100 223.776 C 115.724 225.103,112.289 229.175,111.553 230.352 C 111.192 230.928,110.380 231.984,109.749 232.697 C 109.117 233.410,108.150 234.637,107.600 235.423 C 107.050 236.209,105.925 237.736,105.100 238.815 C 104.275 239.894,103.600 240.934,103.600 241.126 C 103.600 241.319,103.240 241.802,102.800 242.200 C 102.360 242.598,102.000 243.138,102.000 243.400 C 102.000 243.662,101.640 244.202,101.200 244.600 C 100.760 244.998,100.400 245.539,100.400 245.801 C 100.400 246.063,100.040 246.693,99.600 247.200 C 99.160 247.707,98.800 248.371,98.800 248.674 C 98.800 248.977,98.539 249.325,98.219 249.448 C 97.900 249.570,97.436 250.285,97.188 251.035 C 96.941 251.786,96.586 252.400,96.400 252.400 C 96.214 252.400,95.854 253.030,95.600 253.800 C 95.346 254.570,94.990 255.200,94.808 255.200 C 94.627 255.200,94.277 255.695,94.030 256.300 C 93.633 257.275,93.031 258.451,91.932 260.400 C 91.746 260.730,91.396 261.450,91.154 262.000 C 90.912 262.550,90.552 263.270,90.354 263.600 C 90.156 263.930,89.796 264.650,89.554 265.200 C 89.312 265.750,88.952 266.470,88.754 266.800 C 88.556 267.130,88.198 267.850,87.958 268.400 C 86.882 270.866,85.844 273.115,85.151 274.479 C 84.738 275.293,84.400 276.232,84.400 276.567 C 84.400 276.902,83.995 277.946,83.501 278.888 C 82.113 281.530,82.160 294.398,83.568 297.400 C 84.084 298.500,84.969 300.390,85.535 301.600 C 86.101 302.810,86.797 303.944,87.082 304.120 C 87.367 304.296,87.600 304.693,87.600 305.003 C 87.600 305.737,94.263 312.400,94.997 312.400 C 95.307 312.400,95.704 312.629,95.880 312.910 C 96.260 313.515,100.239 315.600,101.014 315.600 C 101.311 315.600,102.235 316.002,103.067 316.493 C 105.374 317.854,118.501 317.854,121.112 316.493 C 122.054 316.002,123.152 315.600,123.551 315.600 C 123.951 315.600,124.693 315.240,125.200 314.800 C 125.707 314.360,126.338 314.000,126.602 314.000 C 127.779 314.000,136.400 306.412,136.400 305.375 C 136.400 305.203,136.673 304.761,137.007 304.392 C 137.838 303.474,141.200 296.833,141.200 296.110 C 141.200 295.789,141.560 295.069,142.000 294.509 C 142.440 293.950,142.800 293.184,142.800 292.807 C 142.800 292.431,143.160 291.707,143.600 291.200 C 144.040 290.693,144.400 289.973,144.400 289.600 C 144.400 289.227,144.760 288.507,145.200 288.000 C 145.640 287.493,146.000 286.767,146.000 286.388 C 146.000 286.008,146.280 285.465,146.623 285.181 C 146.966 284.896,147.505 284.109,147.822 283.432 C 148.139 282.754,148.759 281.660,149.200 281.000 C 149.641 280.340,150.274 279.215,150.606 278.500 C 150.939 277.785,151.343 277.197,151.505 277.192 C 151.667 277.188,152.340 276.266,153.000 275.143 C 153.660 274.021,154.515 272.814,154.900 272.462 C 155.285 272.110,155.600 271.652,155.600 271.445 C 155.600 271.237,155.873 270.782,156.207 270.434 C 156.541 270.085,157.728 268.630,158.844 267.200 C 159.959 265.770,161.126 264.456,161.436 264.280 C 161.746 264.104,162.000 263.763,162.000 263.521 C 162.000 263.280,165.036 260.094,168.747 256.441 C 175.458 249.835,177.146 248.295,180.200 245.993 C 182.694 244.114,183.580 243.433,184.110 242.991 C 185.548 241.791,191.480 237.975,193.016 237.262 C 193.465 237.054,194.073 236.595,194.365 236.242 C 194.658 235.889,195.208 235.600,195.587 235.600 C 195.966 235.600,196.602 235.240,197.000 234.800 C 197.398 234.360,197.983 234.000,198.299 234.000 C 198.615 234.000,199.331 233.640,199.891 233.200 C 200.450 232.760,201.170 232.400,201.491 232.400 C 201.811 232.400,202.531 232.040,203.091 231.600 C 203.650 231.160,204.370 230.800,204.691 230.800 C 205.011 230.800,205.731 230.440,206.291 230.000 C 206.850 229.560,207.721 229.200,208.225 229.200 C 208.730 229.200,209.404 228.939,209.723 228.620 C 210.042 228.301,210.820 227.913,211.452 227.759 C 212.083 227.604,213.029 227.145,213.554 226.739 C 214.079 226.333,214.909 226.000,215.400 226.000 C 215.891 226.000,216.750 225.640,217.309 225.200 C 217.869 224.760,218.629 224.400,219.000 224.400 C 219.371 224.400,220.131 224.040,220.691 223.600 C 221.250 223.160,221.970 222.800,222.291 222.800 C 222.611 222.800,223.331 222.440,223.891 222.000 C 224.450 221.560,225.231 221.200,225.625 221.200 C 226.020 221.200,226.599 220.943,226.913 220.630 C 227.227 220.316,228.095 219.778,228.842 219.433 C 230.831 218.517,235.368 215.936,235.600 215.589 C 235.710 215.424,236.430 214.995,237.200 214.634 C 239.131 213.730,240.266 213.046,241.129 212.264 C 241.533 211.899,242.046 211.600,242.270 211.600 C 242.493 211.600,243.002 211.240,243.400 210.800 C 243.798 210.360,244.267 210.000,244.442 210.000 C 244.763 210.000,246.385 208.904,250.400 205.973 C 251.610 205.090,253.050 204.062,253.600 203.689 C 254.150 203.316,254.780 202.808,255.000 202.559 C 255.220 202.311,256.419 201.369,257.666 200.466 C 258.912 199.564,260.379 198.415,260.926 197.913 C 261.473 197.411,263.063 196.011,264.460 194.803 C 267.813 191.903,280.018 179.685,282.803 176.441 C 284.011 175.033,285.424 173.413,285.943 172.841 C 288.098 170.463,296.278 159.392,297.836 156.746 C 298.075 156.339,298.549 155.689,298.888 155.303 C 299.228 154.916,299.629 154.195,299.780 153.700 C 299.930 153.205,300.204 152.800,300.388 152.800 C 300.571 152.800,300.910 152.260,301.140 151.600 C 301.370 150.940,301.734 150.400,301.948 150.400 C 302.163 150.400,302.546 149.770,302.800 149.000 C 303.054 148.230,303.401 147.600,303.570 147.600 C 303.740 147.600,304.173 146.925,304.533 146.100 C 304.893 145.275,305.548 144.060,305.989 143.400 C 306.431 142.740,306.993 141.750,307.238 141.200 C 307.484 140.650,307.848 139.930,308.046 139.600 C 308.244 139.270,308.604 138.550,308.846 138.000 C 309.088 137.450,309.448 136.730,309.646 136.400 C 309.844 136.070,310.204 135.350,310.446 134.800 C 310.688 134.250,311.048 133.530,311.246 133.200 C 311.444 132.870,311.802 132.150,312.042 131.600 C 313.118 129.134,314.156 126.885,314.849 125.521 C 315.262 124.707,315.600 123.768,315.600 123.433 C 315.600 123.098,316.002 122.054,316.493 121.112 C 317.854 118.501,317.854 105.374,316.493 103.067 C 316.002 102.235,315.600 101.311,315.600 101.014 C 315.600 100.239,313.515 96.260,312.910 95.880 C 312.629 95.704,312.400 95.305,312.400 94.994 C 312.400 94.244,305.770 87.600,305.022 87.600 C 304.702 87.600,304.296 87.371,304.120 87.090 C 303.740 86.485,299.761 84.400,298.986 84.400 C 298.689 84.400,297.839 84.042,297.098 83.605 C 295.561 82.698,286.297 82.187,281.763 82.759 M297.000 84.170 C 314.192 90.313,321.922 108.553,314.341 125.091 C 313.915 126.021,313.221 127.551,312.799 128.491 C 311.481 131.428,306.736 140.923,305.748 142.600 C 305.230 143.480,304.519 144.740,304.168 145.400 C 302.894 147.799,302.161 149.042,300.750 151.200 C 299.959 152.410,298.881 154.133,298.356 155.029 C 291.771 166.255,274.297 185.862,260.534 197.469 C 255.261 201.916,244.632 209.564,238.800 213.106 C 232.223 217.102,222.330 222.309,215.900 225.158 C 214.855 225.621,213.190 226.360,212.200 226.800 C 211.210 227.240,209.545 227.978,208.500 228.440 C 200.418 232.015,188.568 238.787,183.600 242.669 C 174.956 249.424,166.657 257.120,161.029 263.600 C 157.316 267.875,148.800 279.748,148.800 280.649 C 148.800 280.864,148.576 281.264,148.303 281.537 C 147.383 282.457,143.005 290.800,140.399 296.600 C 137.936 302.082,137.002 303.713,134.878 306.242 C 120.961 322.812,95.882 320.230,85.902 301.200 C 81.884 293.538,81.776 283.372,85.624 275.000 C 86.029 274.120,86.753 272.500,87.234 271.400 C 88.334 268.886,93.008 259.495,94.146 257.513 C 94.616 256.696,95.575 254.957,96.278 253.649 C 96.982 252.341,98.286 250.220,99.178 248.935 C 100.069 247.651,100.799 246.469,100.799 246.308 C 100.800 246.147,101.655 244.789,102.700 243.289 C 103.745 241.790,105.140 239.789,105.800 238.844 C 114.081 226.981,131.229 208.743,141.383 201.000 C 142.536 200.120,144.182 198.814,145.040 198.099 C 146.924 196.527,150.817 193.761,156.200 190.170 C 158.400 188.702,160.676 187.172,161.257 186.770 C 161.839 186.368,163.549 185.385,165.057 184.585 C 166.566 183.785,167.980 182.983,168.200 182.804 C 168.672 182.418,181.205 176.105,183.451 175.122 C 184.303 174.749,186.080 173.964,187.400 173.377 C 188.720 172.791,190.610 171.951,191.600 171.512 C 213.076 161.986,230.702 147.843,245.090 128.591 C 245.580 127.936,247.110 125.686,248.490 123.590 C 251.899 118.415,251.932 118.363,252.636 117.000 C 252.976 116.340,253.678 115.080,254.195 114.200 C 255.298 112.321,257.856 107.206,259.396 103.800 C 263.162 95.466,264.431 93.630,269.404 89.317 C 276.316 83.324,288.350 81.079,297.000 84.170 M217.400 258.285 C 215.019 259.010,211.213 260.770,210.471 261.488 C 210.181 261.770,209.714 262.000,209.433 262.000 C 209.153 262.000,208.598 262.360,208.200 262.800 C 207.802 263.240,207.274 263.600,207.027 263.600 C 206.780 263.600,206.285 263.915,205.928 264.300 C 205.570 264.685,204.626 265.450,203.829 266.000 C 203.033 266.550,201.962 267.360,201.450 267.800 C 195.387 273.008,191.300 276.965,187.600 281.210 C 186.390 282.598,185.130 284.024,184.800 284.378 C 183.121 286.178,177.200 294.205,177.200 294.681 C 177.200 294.819,176.926 295.218,176.590 295.566 C 175.770 296.419,174.000 299.153,174.000 299.569 C 174.000 299.752,173.720 300.135,173.377 300.419 C 173.034 300.704,172.495 301.491,172.178 302.168 C 171.861 302.846,171.244 303.940,170.807 304.600 C 167.149 310.122,169.520 316.307,175.767 317.535 C 178.995 318.169,284.178 318.196,290.582 317.564 C 293.188 317.307,295.702 316.814,296.711 316.364 C 297.652 315.944,298.749 315.600,299.149 315.600 C 299.550 315.600,300.293 315.240,300.800 314.800 C 301.307 314.360,301.930 314.000,302.183 314.000 C 303.016 314.000,307.778 310.275,309.571 308.222 C 310.137 307.573,311.005 306.653,311.500 306.176 C 311.995 305.699,312.400 305.132,312.400 304.916 C 312.400 304.700,312.760 304.198,313.200 303.800 C 313.640 303.402,314.000 302.817,314.000 302.501 C 314.000 302.185,314.360 301.469,314.800 300.909 C 315.240 300.350,315.600 299.562,315.600 299.158 C 315.600 298.755,316.001 297.656,316.490 296.717 C 317.842 294.123,317.842 281.477,316.490 278.883 C 316.001 277.944,315.600 276.887,315.600 276.535 C 315.600 275.543,312.711 270.854,310.600 268.422 C 308.493 265.993,305.865 263.600,305.306 263.600 C 305.096 263.600,304.598 263.240,304.200 262.800 C 303.802 262.360,303.258 262.000,302.992 262.000 C 302.726 262.000,302.050 261.640,301.491 261.200 C 300.931 260.760,300.142 260.399,299.737 260.397 C 299.332 260.396,298.460 260.037,297.800 259.600 C 297.140 259.163,295.970 258.802,295.200 258.798 C 294.430 258.794,292.810 258.525,291.600 258.200 C 288.264 257.305,220.364 257.383,217.400 258.285 M290.865 258.805 C 311.892 260.799,323.693 283.494,313.439 302.219 C 312.602 303.749,311.621 305.297,311.258 305.660 C 310.896 306.024,309.714 307.242,308.631 308.367 C 305.478 311.645,301.604 314.035,296.400 315.916 L 293.400 317.000 233.777 317.000 L 174.153 317.000 172.777 315.842 C 169.379 312.984,168.691 309.435,170.830 305.800 C 171.477 304.700,172.230 303.344,172.503 302.787 C 178.045 291.491,196.949 270.711,208.200 263.547 C 216.691 258.140,213.476 258.503,253.400 258.447 C 273.092 258.420,288.335 258.565,290.865 258.805 " stroke="none" fill="#a6a6a6" fill-rule="evenodd"/>
    <path id="path3" d="M108.900 83.076 C 109.285 83.176,109.915 83.176,110.300 83.076 C 110.685 82.975,110.370 82.893,109.600 82.893 C 108.830 82.893,108.515 82.975,108.900 83.076 M284.500 83.076 C 284.885 83.176,285.515 83.176,285.900 83.076 C 286.285 82.975,285.970 82.893,285.200 82.893 C 284.430 82.893,284.115 82.975,284.500 83.076 M82.893 109.600 C 82.893 110.370,82.975 110.685,83.076 110.300 C 83.176 109.915,83.176 109.285,83.076 108.900 C 82.975 108.515,82.893 108.830,82.893 109.600 M316.893 109.600 C 316.893 110.370,316.975 110.685,317.076 110.300 C 317.176 109.915,317.176 109.285,317.076 108.900 C 316.975 108.515,316.893 108.830,316.893 109.600 M82.893 114.800 C 82.893 115.570,82.975 115.885,83.076 115.500 C 83.176 115.115,83.176 114.485,83.076 114.100 C 82.975 113.715,82.893 114.030,82.893 114.800 M128.730 141.500 C 138.262 141.560,153.742 141.560,163.130 141.500 C 172.519 141.440,164.720 141.391,145.800 141.391 C 126.880 141.391,119.199 141.440,128.730 141.500 M231.600 144.200 C 229.961 145.850,228.710 147.200,228.820 147.200 C 228.930 147.200,230.361 145.850,232.000 144.200 C 233.639 142.550,234.890 141.200,234.780 141.200 C 234.670 141.200,233.239 142.550,231.600 144.200 M167.791 256.100 L 164.600 259.400 167.900 256.209 C 170.965 253.246,171.382 252.800,171.091 252.800 C 171.030 252.800,169.545 254.285,167.791 256.100 M237.130 258.700 C 246.662 258.760,262.142 258.760,271.530 258.700 C 280.919 258.640,273.120 258.591,254.200 258.591 C 235.280 258.591,227.599 258.640,237.130 258.700 M316.893 285.600 C 316.893 286.370,316.975 286.685,317.076 286.300 C 317.176 285.915,317.176 285.285,317.076 284.900 C 316.975 284.515,316.893 284.830,316.893 285.600 M108.900 317.076 C 109.285 317.176,109.915 317.176,110.300 317.076 C 110.685 316.975,110.370 316.893,109.600 316.893 C 108.830 316.893,108.515 316.975,108.900 317.076 M113.700 317.076 C 114.085 317.176,114.715 317.176,115.100 317.076 C 115.485 316.975,115.170 316.893,114.400 316.893 C 113.630 316.893,113.315 316.975,113.700 317.076 M289.300 317.076 C 289.685 317.176,290.315 317.176,290.700 317.076 C 291.085 316.975,290.770 316.893,290.000 316.893 C 289.230 316.893,288.915 316.975,289.300 317.076 " stroke="none" fill="#8c8c8c" fill-rule="evenodd"/>
    <path id="path4" d="M108.200 83.194 C 88.753 85.169,76.997 107.583,86.100 125.328 C 87.877 128.792,89.988 131.323,94.167 135.000 C 96.008 136.619,98.839 138.176,103.065 139.890 L 105.800 141.000 144.600 141.000 L 183.400 141.000 186.000 139.676 C 194.518 135.339,208.733 123.159,214.836 114.968 C 215.806 113.666,216.780 112.405,217.000 112.166 C 217.220 111.927,217.760 111.234,218.200 110.626 C 218.640 110.018,219.450 108.918,220.000 108.181 C 221.344 106.381,223.263 103.556,225.310 100.363 C 226.239 98.913,227.223 97.383,227.495 96.963 C 231.253 91.164,230.995 87.045,226.671 83.838 L 225.542 83.000 168.271 82.955 C 136.772 82.930,109.740 83.037,108.200 83.194 M284.000 83.166 C 274.882 84.083,265.676 90.760,261.617 99.400 C 257.734 107.663,252.973 117.006,251.424 119.400 C 244.626 129.905,243.042 131.989,235.240 140.687 C 229.266 147.348,218.264 156.655,210.992 161.200 C 209.760 161.970,208.329 162.870,207.811 163.200 C 207.294 163.530,205.820 164.391,204.535 165.114 C 203.251 165.837,201.930 166.595,201.600 166.800 C 200.305 167.603,191.534 171.795,187.800 173.395 C 179.773 176.835,170.761 181.459,161.284 187.000 C 160.359 187.541,150.646 194.082,148.400 195.676 C 127.835 210.276,108.908 231.954,93.985 258.000 C 93.435 258.960,88.002 270.043,87.220 271.800 C 86.829 272.680,86.221 274.030,85.870 274.800 C 79.723 288.282,83.477 303.133,95.200 311.704 C 106.241 319.777,122.542 318.522,132.355 308.844 C 136.108 305.144,137.304 303.237,140.793 295.400 C 141.871 292.980,143.188 290.190,143.720 289.200 C 146.653 283.741,147.795 281.700,148.416 280.800 C 148.795 280.250,150.160 278.180,151.448 276.200 C 153.815 272.560,158.038 266.846,160.009 264.615 C 170.318 252.946,177.528 246.495,188.197 239.394 C 190.176 238.077,192.102 236.820,192.478 236.600 C 198.811 232.896,203.130 230.638,208.000 228.485 C 208.990 228.047,210.824 227.219,212.075 226.645 C 213.327 226.070,214.464 225.600,214.603 225.600 C 215.685 225.600,234.214 215.862,239.126 212.711 C 239.717 212.332,240.830 211.653,241.600 211.200 C 258.454 201.302,281.417 179.254,294.506 160.400 C 297.559 156.003,299.346 153.283,300.711 150.954 C 301.212 150.099,301.978 148.860,302.412 148.200 C 302.846 147.540,303.485 146.460,303.832 145.800 C 304.179 145.140,304.943 143.744,305.531 142.697 C 306.766 140.499,311.736 130.562,312.783 128.200 C 313.173 127.320,313.777 125.970,314.126 125.200 C 319.704 112.880,317.162 99.325,307.644 90.638 C 306.898 89.957,306.088 89.218,305.844 88.995 C 301.279 84.828,292.026 82.358,284.000 83.166 M226.676 84.614 C 227.841 85.376,228.454 86.205,229.149 87.955 L 230.074 90.282 229.284 92.041 C 228.850 93.009,228.372 94.205,228.221 94.700 C 228.070 95.195,227.790 95.600,227.600 95.600 C 227.410 95.600,227.140 95.959,227.001 96.398 C 226.861 96.837,225.094 99.642,223.074 102.631 C 221.053 105.621,219.220 108.373,219.000 108.748 C 218.590 109.447,217.885 110.320,216.763 111.519 C 216.413 111.894,215.180 113.433,214.023 114.940 C 212.867 116.447,211.263 118.350,210.460 119.169 C 209.657 119.988,208.531 121.185,207.957 121.829 C 203.098 127.283,190.897 136.878,186.400 138.782 C 185.850 139.015,184.860 139.519,184.200 139.903 C 182.381 140.960,107.392 140.981,105.200 139.926 C 104.430 139.555,103.170 139.078,102.400 138.867 C 101.630 138.656,100.190 138.015,99.200 137.442 C 98.210 136.869,96.942 136.176,96.382 135.900 C 95.175 135.307,94.656 134.868,91.894 132.106 C 88.581 128.793,88.616 128.842,86.363 124.294 C 83.634 118.785,82.475 108.766,84.188 105.483 C 84.508 104.869,84.884 103.758,85.024 103.014 C 85.346 101.298,87.143 97.780,89.290 94.660 C 89.950 93.701,93.701 89.950,94.660 89.290 C 97.903 87.058,101.179 85.368,102.886 85.048 C 103.700 84.895,104.869 84.508,105.483 84.188 C 106.446 83.685,114.754 83.605,165.864 83.602 L 225.128 83.600 226.676 84.614 M294.334 84.166 C 294.935 84.477,296.082 84.854,296.883 85.004 C 298.697 85.345,302.153 87.096,305.340 89.290 C 306.299 89.950,310.050 93.701,310.710 94.660 C 312.904 97.847,314.655 101.303,314.996 103.117 C 315.146 103.918,315.523 105.065,315.834 105.666 C 316.235 106.442,316.400 108.250,316.400 111.880 C 316.400 117.862,315.989 119.499,312.635 126.875 C 312.066 128.127,311.600 129.410,311.600 129.726 C 311.600 130.043,311.342 130.517,311.026 130.779 C 310.710 131.041,310.338 131.770,310.200 132.400 C 310.062 133.030,309.702 133.750,309.400 134.000 C 309.098 134.250,308.738 134.970,308.600 135.600 C 308.462 136.230,308.102 136.950,307.800 137.200 C 307.498 137.450,307.138 138.170,307.000 138.800 C 306.862 139.430,306.499 140.152,306.195 140.404 C 305.890 140.657,305.438 141.480,305.189 142.232 C 304.941 142.984,304.590 143.600,304.408 143.600 C 304.227 143.600,303.874 144.095,303.623 144.700 C 303.373 145.305,302.727 146.520,302.187 147.400 C 301.647 148.280,300.945 149.554,300.626 150.232 C 300.307 150.909,299.766 151.696,299.423 151.981 C 299.080 152.265,298.800 152.718,298.800 152.987 C 298.800 153.256,298.440 153.802,298.000 154.200 C 297.560 154.598,297.200 155.067,297.200 155.242 C 297.200 155.417,296.615 156.395,295.900 157.415 C 295.185 158.436,294.420 159.576,294.200 159.950 C 293.980 160.324,293.573 160.893,293.295 161.215 C 292.610 162.010,290.735 164.508,290.000 165.606 C 289.352 166.574,288.161 168.082,287.200 169.152 C 286.870 169.519,285.344 171.345,283.809 173.210 C 278.928 179.139,268.693 189.667,264.387 193.188 C 263.184 194.172,261.482 195.657,260.604 196.488 C 259.726 197.320,258.898 198.000,258.763 198.000 C 258.627 198.000,258.003 198.477,257.374 199.059 C 256.265 200.087,249.266 205.384,247.944 206.197 C 247.583 206.419,245.423 207.860,243.144 209.400 C 240.865 210.940,238.550 212.425,238.000 212.700 C 237.450 212.974,236.460 213.554,235.800 213.988 C 235.140 214.422,233.937 215.140,233.127 215.583 C 232.317 216.026,231.541 216.571,231.404 216.794 C 231.266 217.017,230.816 217.200,230.405 217.200 C 229.994 217.200,229.401 217.457,229.087 217.770 C 228.773 218.084,227.905 218.620,227.158 218.962 C 226.411 219.304,225.530 219.748,225.200 219.949 C 224.870 220.150,224.150 220.512,223.600 220.754 C 223.050 220.996,222.330 221.349,222.000 221.538 C 221.432 221.864,220.142 222.454,216.000 224.287 C 208.724 227.506,202.739 230.290,201.200 231.171 C 200.870 231.360,200.150 231.712,199.600 231.954 C 199.050 232.196,198.330 232.567,198.000 232.779 C 197.670 232.991,195.870 234.017,194.000 235.059 C 192.130 236.102,190.456 237.190,190.280 237.477 C 190.104 237.765,189.754 238.000,189.502 238.000 C 188.927 238.000,185.911 240.024,185.480 240.699 C 185.304 240.974,184.979 241.200,184.758 241.200 C 184.211 241.200,178.800 245.262,178.800 245.672 C 178.800 245.853,178.539 246.000,178.220 246.000 C 177.901 246.000,177.496 246.231,177.320 246.512 C 177.144 246.794,175.380 248.398,173.400 250.077 C 169.317 253.540,164.278 258.618,161.286 262.285 C 159.058 265.017,158.925 265.175,157.144 267.200 C 155.951 268.556,154.288 270.877,153.336 272.511 C 153.081 272.949,152.721 273.419,152.535 273.554 C 151.954 273.978,150.000 277.021,150.000 277.502 C 150.000 277.754,149.757 278.104,149.460 278.280 C 149.164 278.456,148.630 279.140,148.275 279.800 C 147.920 280.460,147.340 281.540,146.987 282.200 C 146.634 282.860,145.911 284.120,145.380 285.000 C 144.850 285.880,144.213 287.050,143.965 287.600 C 143.717 288.150,143.352 288.870,143.154 289.200 C 142.956 289.530,142.596 290.250,142.354 290.800 C 142.112 291.350,141.752 292.070,141.554 292.400 C 141.210 292.974,140.961 293.514,139.807 296.200 C 136.670 303.496,131.977 309.719,128.120 311.695 C 127.504 312.011,126.010 312.811,124.800 313.473 C 123.590 314.136,121.886 314.810,121.014 314.973 C 120.141 315.136,118.935 315.523,118.334 315.834 C 116.799 316.628,107.201 316.628,105.666 315.834 C 105.065 315.523,103.908 315.144,103.095 314.992 C 101.759 314.741,100.851 314.316,96.368 311.846 C 95.616 311.431,94.856 310.846,94.680 310.546 C 94.504 310.246,94.203 310.000,94.012 310.000 C 93.557 310.000,90.000 306.443,90.000 305.988 C 90.000 305.797,89.754 305.496,89.454 305.320 C 89.154 305.144,88.569 304.384,88.154 303.632 C 85.694 299.168,85.261 298.253,85.032 297.031 C 84.893 296.288,84.504 295.130,84.169 294.457 C 83.683 293.484,83.589 292.066,83.707 287.517 C 83.858 281.707,84.184 280.117,86.033 276.156 C 86.455 275.252,86.800 274.239,86.800 273.905 C 86.800 273.571,87.058 273.083,87.374 272.821 C 87.690 272.559,88.070 271.772,88.219 271.072 C 88.367 270.373,88.718 269.530,88.997 269.200 C 89.277 268.870,89.638 268.150,89.800 267.600 C 89.962 267.050,90.322 266.330,90.600 266.000 C 90.878 265.670,91.238 264.950,91.400 264.400 C 91.562 263.850,91.922 263.130,92.200 262.800 C 92.478 262.470,92.841 261.750,93.008 261.200 C 93.174 260.650,93.645 259.771,94.055 259.246 C 94.465 258.721,94.800 258.059,94.800 257.775 C 94.800 257.490,95.057 257.001,95.370 256.687 C 95.684 256.373,96.224 255.505,96.569 254.758 C 96.915 254.011,97.559 252.860,98.000 252.200 C 98.441 251.540,99.061 250.446,99.378 249.768 C 99.695 249.091,100.234 248.304,100.577 248.019 C 100.920 247.735,101.200 247.359,101.200 247.185 C 101.200 247.010,102.145 245.486,103.300 243.799 C 104.455 242.111,105.581 240.431,105.803 240.065 C 106.313 239.224,110.757 233.202,111.459 232.400 C 113.557 230.006,114.000 229.454,114.000 229.237 C 114.000 229.102,114.680 228.274,115.512 227.396 C 116.343 226.518,117.828 224.813,118.812 223.607 C 120.786 221.186,132.970 208.998,135.588 206.825 C 136.499 206.068,138.089 204.677,139.122 203.734 C 140.155 202.790,141.122 202.014,141.271 202.009 C 141.421 202.004,141.853 201.690,142.232 201.311 C 143.444 200.099,149.140 195.747,151.802 194.000 C 152.305 193.670,154.643 192.095,156.997 190.500 C 159.351 188.905,161.416 187.600,161.585 187.600 C 161.754 187.600,162.323 187.261,162.850 186.846 C 163.921 186.004,167.545 183.897,169.432 183.019 C 170.109 182.704,170.881 182.185,171.146 181.865 C 171.411 181.545,172.252 181.167,173.014 181.024 C 173.776 180.881,174.400 180.619,174.400 180.443 C 174.400 180.266,175.075 179.830,175.900 179.474 C 176.725 179.118,177.670 178.672,178.000 178.482 C 179.942 177.364,181.961 176.465,183.072 176.224 C 183.772 176.073,184.559 175.690,184.821 175.374 C 185.083 175.058,185.570 174.800,185.902 174.800 C 186.234 174.800,187.067 174.459,187.753 174.043 C 188.439 173.627,189.573 173.165,190.272 173.017 C 190.972 172.870,191.759 172.490,192.021 172.174 C 192.283 171.858,192.812 171.600,193.195 171.600 C 193.578 171.600,194.321 171.263,194.846 170.852 C 195.371 170.441,196.385 169.976,197.100 169.820 C 197.815 169.664,198.400 169.385,198.400 169.199 C 198.400 169.014,199.016 168.659,199.768 168.411 C 200.520 168.162,201.352 167.698,201.617 167.380 C 201.882 167.061,202.355 166.800,202.668 166.800 C 202.982 166.800,204.323 166.080,205.648 165.200 C 206.973 164.320,208.166 163.600,208.299 163.600 C 208.610 163.600,214.067 159.990,214.609 159.426 C 214.834 159.192,215.302 158.820,215.649 158.600 C 217.791 157.242,219.544 155.965,220.521 155.050 C 221.137 154.472,221.803 154.000,222.001 154.000 C 222.198 154.000,222.504 153.755,222.680 153.455 C 222.856 153.155,224.170 151.957,225.600 150.792 C 229.029 147.998,235.795 141.291,238.246 138.256 C 239.321 136.925,240.560 135.433,241.000 134.941 C 243.796 131.812,246.167 128.677,246.780 127.300 C 247.000 126.805,247.343 126.400,247.542 126.400 C 247.740 126.400,248.127 125.860,248.400 125.200 C 248.673 124.540,249.043 124.000,249.222 124.000 C 249.400 124.000,249.670 123.595,249.820 123.100 C 249.971 122.605,250.372 121.884,250.712 121.497 C 251.354 120.766,251.935 119.834,253.017 117.800 C 253.368 117.140,254.089 115.880,254.620 115.000 C 255.150 114.120,255.787 112.950,256.035 112.400 C 256.283 111.850,256.648 111.130,256.846 110.800 C 257.044 110.470,257.404 109.750,257.646 109.200 C 257.888 108.650,258.248 107.930,258.446 107.600 C 258.790 107.026,259.039 106.486,260.193 103.800 C 263.268 96.649,267.914 90.425,271.746 88.324 C 275.414 86.313,277.700 85.242,278.859 84.993 C 279.596 84.835,280.650 84.464,281.200 84.169 C 282.641 83.395,292.840 83.393,294.334 84.166 M216.980 259.166 C 215.773 259.463,212.121 261.154,210.629 262.107 C 202.608 267.230,191.935 276.730,186.032 284.000 C 184.871 285.430,183.396 287.240,182.755 288.022 C 181.763 289.231,179.929 291.808,176.791 296.400 C 171.506 304.135,169.427 308.297,169.728 310.541 C 169.967 312.318,171.614 314.890,173.329 316.162 L 174.459 317.000 233.729 317.000 L 293.000 317.000 296.000 315.915 C 309.588 311.003,316.842 301.296,316.876 287.982 C 316.910 274.744,310.296 265.495,296.800 259.910 L 294.600 259.000 256.400 258.933 C 235.390 258.897,217.651 259.001,216.980 259.166 M295.096 260.067 C 295.809 260.434,296.963 260.860,297.662 261.014 C 301.511 261.859,309.734 268.165,311.676 271.761 C 313.149 274.488,314.798 278.017,315.432 279.800 C 316.417 282.568,316.711 292.639,315.855 294.294 C 315.532 294.918,315.137 296.141,314.976 297.014 C 314.816 297.886,314.350 299.029,313.942 299.554 C 313.534 300.079,313.200 300.816,313.200 301.192 C 313.200 301.568,312.840 302.202,312.400 302.600 C 311.960 302.998,311.600 303.550,311.600 303.827 C 311.600 304.615,305.547 310.601,303.784 311.557 C 302.913 312.029,301.300 312.925,300.200 313.546 C 299.100 314.168,297.486 314.810,296.614 314.973 C 295.741 315.135,294.535 315.523,293.934 315.834 C 293.005 316.314,283.914 316.400,233.856 316.400 L 174.872 316.400 173.324 315.386 C 172.159 314.624,171.546 313.795,170.851 312.045 L 169.926 309.718 170.716 307.959 C 171.150 306.991,171.628 305.795,171.779 305.300 C 171.930 304.805,172.210 304.400,172.400 304.400 C 172.590 304.400,172.867 304.018,173.016 303.550 C 173.251 302.811,174.647 300.563,177.263 296.716 C 177.668 296.120,178.000 295.445,178.000 295.216 C 178.000 294.987,178.162 294.800,178.360 294.800 C 178.674 294.800,179.209 294.073,181.000 291.210 C 181.445 290.498,181.882 289.959,183.440 288.200 C 184.024 287.540,185.234 286.010,186.129 284.800 C 187.023 283.590,188.486 281.870,189.378 280.978 C 190.270 280.086,191.470 278.826,192.044 278.178 C 193.027 277.069,199.378 271.070,200.489 270.200 C 200.770 269.980,201.945 269.088,203.100 268.218 C 204.255 267.348,205.200 266.493,205.200 266.318 C 205.200 266.143,205.442 266.000,205.738 266.000 C 206.034 266.000,206.602 265.640,207.000 265.200 C 207.398 264.760,207.944 264.400,208.213 264.400 C 208.482 264.400,208.935 264.120,209.219 263.777 C 209.504 263.434,210.291 262.898,210.968 262.585 C 211.646 262.272,212.470 261.844,212.800 261.633 C 216.548 259.243,215.837 259.280,257.000 259.343 C 290.508 259.395,293.916 259.460,295.096 260.067 " stroke="none" fill="#848484" fill-rule="evenodd"/>
  </g>
</svg>

